<mxfile host="app.diagrams.net" modified="2022-05-23T13:54:51.164Z" agent="5.0 (Windows NT 10.0; Win64; x64) AppleWebKit/537.36 (KHTML, like Gecko) Chrome/101.0.0.0 Safari/537.36" etag="8xmnaDQ4GBr50rVPu-Zr" version="17.4.0" type="github">
  <diagram id="C5RBs43oDa-KdzZeNtuy" name="Page-1">
    <mxGraphModel dx="2422" dy="1357" grid="1" gridSize="10" guides="1" tooltips="1" connect="1" arrows="1" fold="1" page="1" pageScale="1" pageWidth="2336" pageHeight="1654" math="0" shadow="0">
      <root>
        <mxCell id="WIyWlLk6GJQsqaUBKTNV-0" />
        <mxCell id="WIyWlLk6GJQsqaUBKTNV-1" parent="WIyWlLk6GJQsqaUBKTNV-0" />
        <mxCell id="vL6Nq_Aky3gKRxV9vYMv-28" value="" style="ellipse;whiteSpace=wrap;html=1;" vertex="1" parent="WIyWlLk6GJQsqaUBKTNV-1">
          <mxGeometry x="1445.5" y="1355" width="81" height="50" as="geometry" />
        </mxCell>
        <mxCell id="vL6Nq_Aky3gKRxV9vYMv-27" value="" style="ellipse;whiteSpace=wrap;html=1;" vertex="1" parent="WIyWlLk6GJQsqaUBKTNV-1">
          <mxGeometry x="581" y="1495" width="81" height="50" as="geometry" />
        </mxCell>
        <mxCell id="vL6Nq_Aky3gKRxV9vYMv-26" value="" style="ellipse;whiteSpace=wrap;html=1;" vertex="1" parent="WIyWlLk6GJQsqaUBKTNV-1">
          <mxGeometry x="654.5" y="125" width="81" height="50" as="geometry" />
        </mxCell>
        <mxCell id="vL6Nq_Aky3gKRxV9vYMv-25" value="" style="ellipse;whiteSpace=wrap;html=1;" vertex="1" parent="WIyWlLk6GJQsqaUBKTNV-1">
          <mxGeometry x="1455.5" y="295" width="81" height="50" as="geometry" />
        </mxCell>
        <mxCell id="vL6Nq_Aky3gKRxV9vYMv-24" value="" style="ellipse;whiteSpace=wrap;html=1;" vertex="1" parent="WIyWlLk6GJQsqaUBKTNV-1">
          <mxGeometry x="1515.5" y="935" width="81" height="50" as="geometry" />
        </mxCell>
        <mxCell id="vL6Nq_Aky3gKRxV9vYMv-23" value="" style="ellipse;whiteSpace=wrap;html=1;" vertex="1" parent="WIyWlLk6GJQsqaUBKTNV-1">
          <mxGeometry x="2005.5" y="275" width="81" height="50" as="geometry" />
        </mxCell>
        <mxCell id="vL6Nq_Aky3gKRxV9vYMv-22" value="" style="ellipse;whiteSpace=wrap;html=1;" vertex="1" parent="WIyWlLk6GJQsqaUBKTNV-1">
          <mxGeometry x="1935" y="985" width="81" height="50" as="geometry" />
        </mxCell>
        <mxCell id="vL6Nq_Aky3gKRxV9vYMv-21" value="" style="ellipse;whiteSpace=wrap;html=1;" vertex="1" parent="WIyWlLk6GJQsqaUBKTNV-1">
          <mxGeometry x="1241.25" y="945" width="79.75" height="50" as="geometry" />
        </mxCell>
        <mxCell id="vL6Nq_Aky3gKRxV9vYMv-20" value="" style="ellipse;whiteSpace=wrap;html=1;" vertex="1" parent="WIyWlLk6GJQsqaUBKTNV-1">
          <mxGeometry x="1161.25" y="555" width="79.75" height="50" as="geometry" />
        </mxCell>
        <mxCell id="vL6Nq_Aky3gKRxV9vYMv-19" value="" style="ellipse;whiteSpace=wrap;html=1;" vertex="1" parent="WIyWlLk6GJQsqaUBKTNV-1">
          <mxGeometry x="245.13" y="690" width="79.75" height="50" as="geometry" />
        </mxCell>
        <mxCell id="5nUj0MCLF96ZCzCzL8qP-0" value="회원" style="rounded=0;whiteSpace=wrap;html=1;" parent="WIyWlLk6GJQsqaUBKTNV-1" vertex="1">
          <mxGeometry x="321" y="837.5" width="90" height="40" as="geometry" />
        </mxCell>
        <mxCell id="5nUj0MCLF96ZCzCzL8qP-6" value="크리에이터" style="rounded=0;whiteSpace=wrap;html=1;" parent="WIyWlLk6GJQsqaUBKTNV-1" vertex="1">
          <mxGeometry x="956" y="690" width="90" height="40" as="geometry" />
        </mxCell>
        <mxCell id="5nUj0MCLF96ZCzCzL8qP-7" value="구독자" style="rounded=0;whiteSpace=wrap;html=1;" parent="WIyWlLk6GJQsqaUBKTNV-1" vertex="1">
          <mxGeometry x="956" y="960" width="90" height="40" as="geometry" />
        </mxCell>
        <mxCell id="5nUj0MCLF96ZCzCzL8qP-8" value="문의사항" style="rounded=0;whiteSpace=wrap;html=1;" parent="WIyWlLk6GJQsqaUBKTNV-1" vertex="1">
          <mxGeometry x="1446.5" y="835" width="90" height="40" as="geometry" />
        </mxCell>
        <mxCell id="5nUj0MCLF96ZCzCzL8qP-9" value="관리자" style="rounded=0;whiteSpace=wrap;html=1;" parent="WIyWlLk6GJQsqaUBKTNV-1" vertex="1">
          <mxGeometry x="2001" y="835" width="90" height="40" as="geometry" />
        </mxCell>
        <mxCell id="5nUj0MCLF96ZCzCzL8qP-10" value="공지사항" style="rounded=0;whiteSpace=wrap;html=1;" parent="WIyWlLk6GJQsqaUBKTNV-1" vertex="1">
          <mxGeometry x="1946" y="420" width="90" height="40" as="geometry" />
        </mxCell>
        <mxCell id="5nUj0MCLF96ZCzCzL8qP-11" value="책" style="rounded=0;whiteSpace=wrap;html=1;" parent="WIyWlLk6GJQsqaUBKTNV-1" vertex="1">
          <mxGeometry x="1151" y="340" width="90" height="40" as="geometry" />
        </mxCell>
        <mxCell id="5nUj0MCLF96ZCzCzL8qP-12" value="음악" style="rounded=0;whiteSpace=wrap;html=1;" parent="WIyWlLk6GJQsqaUBKTNV-1" vertex="1">
          <mxGeometry x="890" y="310" width="90" height="40" as="geometry" />
        </mxCell>
        <mxCell id="5nUj0MCLF96ZCzCzL8qP-13" value="플레이리스트" style="rounded=0;whiteSpace=wrap;html=1;" parent="WIyWlLk6GJQsqaUBKTNV-1" vertex="1">
          <mxGeometry x="751" y="1430" width="90" height="40" as="geometry" />
        </mxCell>
        <mxCell id="5nUj0MCLF96ZCzCzL8qP-14" value="책" style="rounded=0;whiteSpace=wrap;html=1;" parent="WIyWlLk6GJQsqaUBKTNV-1" vertex="1">
          <mxGeometry x="1081" y="1380" width="90" height="40" as="geometry" />
        </mxCell>
        <mxCell id="5nUj0MCLF96ZCzCzL8qP-35" value="설정" style="rhombus;whiteSpace=wrap;html=1;" parent="WIyWlLk6GJQsqaUBKTNV-1" vertex="1">
          <mxGeometry x="571" y="835" width="100" height="45" as="geometry" />
        </mxCell>
        <mxCell id="5nUj0MCLF96ZCzCzL8qP-36" value="구독" style="rhombus;whiteSpace=wrap;html=1;" parent="WIyWlLk6GJQsqaUBKTNV-1" vertex="1">
          <mxGeometry x="951" y="830" width="100" height="45" as="geometry" />
        </mxCell>
        <mxCell id="5nUj0MCLF96ZCzCzL8qP-38" value="응답" style="rhombus;whiteSpace=wrap;html=1;" parent="WIyWlLk6GJQsqaUBKTNV-1" vertex="1">
          <mxGeometry x="1710" y="837.5" width="100" height="40" as="geometry" />
        </mxCell>
        <mxCell id="5nUj0MCLF96ZCzCzL8qP-39" value="추천" style="rhombus;whiteSpace=wrap;html=1;" parent="WIyWlLk6GJQsqaUBKTNV-1" vertex="1">
          <mxGeometry x="951" y="530" width="100" height="45" as="geometry" />
        </mxCell>
        <mxCell id="5nUj0MCLF96ZCzCzL8qP-40" value="작성" style="rhombus;whiteSpace=wrap;html=1;" parent="WIyWlLk6GJQsqaUBKTNV-1" vertex="1">
          <mxGeometry x="790" y="1140" width="105" height="50" as="geometry" />
        </mxCell>
        <mxCell id="5nUj0MCLF96ZCzCzL8qP-41" value="구매" style="rhombus;whiteSpace=wrap;html=1;" parent="WIyWlLk6GJQsqaUBKTNV-1" vertex="1">
          <mxGeometry x="1041" y="1180" width="100" height="50" as="geometry" />
        </mxCell>
        <mxCell id="5nUj0MCLF96ZCzCzL8qP-42" value="작성" style="rhombus;whiteSpace=wrap;html=1;" parent="WIyWlLk6GJQsqaUBKTNV-1" vertex="1">
          <mxGeometry x="1970" y="625" width="100" height="45" as="geometry" />
        </mxCell>
        <mxCell id="5nUj0MCLF96ZCzCzL8qP-43" value="" style="endArrow=none;html=1;rounded=0;entryX=0;entryY=0.5;entryDx=0;entryDy=0;exitX=1;exitY=0.5;exitDx=0;exitDy=0;" parent="WIyWlLk6GJQsqaUBKTNV-1" source="5nUj0MCLF96ZCzCzL8qP-0" target="5nUj0MCLF96ZCzCzL8qP-35" edge="1">
          <mxGeometry width="50" height="50" relative="1" as="geometry">
            <mxPoint x="561" y="854.2900000000001" as="sourcePoint" />
            <mxPoint x="641" y="854" as="targetPoint" />
          </mxGeometry>
        </mxCell>
        <mxCell id="5nUj0MCLF96ZCzCzL8qP-44" value="" style="endArrow=none;html=1;rounded=0;entryX=0.5;entryY=1;entryDx=0;entryDy=0;exitX=1;exitY=0.5;exitDx=0;exitDy=0;" parent="WIyWlLk6GJQsqaUBKTNV-1" source="5nUj0MCLF96ZCzCzL8qP-35" target="5nUj0MCLF96ZCzCzL8qP-6" edge="1">
          <mxGeometry width="50" height="50" relative="1" as="geometry">
            <mxPoint x="841" y="850" as="sourcePoint" />
            <mxPoint x="891" y="800" as="targetPoint" />
          </mxGeometry>
        </mxCell>
        <mxCell id="5nUj0MCLF96ZCzCzL8qP-45" value="" style="endArrow=none;html=1;rounded=0;entryX=0.5;entryY=0;entryDx=0;entryDy=0;exitX=1;exitY=0.5;exitDx=0;exitDy=0;" parent="WIyWlLk6GJQsqaUBKTNV-1" source="5nUj0MCLF96ZCzCzL8qP-35" target="5nUj0MCLF96ZCzCzL8qP-7" edge="1">
          <mxGeometry width="50" height="50" relative="1" as="geometry">
            <mxPoint x="851" y="860" as="sourcePoint" />
            <mxPoint x="876" y="840" as="targetPoint" />
          </mxGeometry>
        </mxCell>
        <mxCell id="5nUj0MCLF96ZCzCzL8qP-46" value="" style="endArrow=none;html=1;rounded=0;entryX=0.5;entryY=1;entryDx=0;entryDy=0;" parent="WIyWlLk6GJQsqaUBKTNV-1" target="5nUj0MCLF96ZCzCzL8qP-6" edge="1">
          <mxGeometry width="50" height="50" relative="1" as="geometry">
            <mxPoint x="1000.58" y="830" as="sourcePoint" />
            <mxPoint x="1000.58" y="770" as="targetPoint" />
          </mxGeometry>
        </mxCell>
        <mxCell id="5nUj0MCLF96ZCzCzL8qP-48" value="" style="endArrow=none;html=1;rounded=0;exitX=0.5;exitY=0;exitDx=0;exitDy=0;" parent="WIyWlLk6GJQsqaUBKTNV-1" source="5nUj0MCLF96ZCzCzL8qP-7" edge="1">
          <mxGeometry width="50" height="50" relative="1" as="geometry">
            <mxPoint x="1001" y="930" as="sourcePoint" />
            <mxPoint x="1000.58" y="875" as="targetPoint" />
          </mxGeometry>
        </mxCell>
        <mxCell id="5nUj0MCLF96ZCzCzL8qP-49" value="" style="endArrow=none;html=1;rounded=0;entryX=0.5;entryY=1;entryDx=0;entryDy=0;exitX=0;exitY=0.5;exitDx=0;exitDy=0;" parent="WIyWlLk6GJQsqaUBKTNV-1" source="5nUj0MCLF96ZCzCzL8qP-37" target="5nUj0MCLF96ZCzCzL8qP-6" edge="1">
          <mxGeometry width="50" height="50" relative="1" as="geometry">
            <mxPoint x="1151" y="800" as="sourcePoint" />
            <mxPoint x="1201" y="750" as="targetPoint" />
          </mxGeometry>
        </mxCell>
        <mxCell id="5nUj0MCLF96ZCzCzL8qP-50" value="" style="endArrow=none;html=1;rounded=0;entryX=0;entryY=0.5;entryDx=0;entryDy=0;exitX=0.5;exitY=0;exitDx=0;exitDy=0;" parent="WIyWlLk6GJQsqaUBKTNV-1" source="5nUj0MCLF96ZCzCzL8qP-7" target="5nUj0MCLF96ZCzCzL8qP-37" edge="1">
          <mxGeometry width="50" height="50" relative="1" as="geometry">
            <mxPoint x="1051" y="950" as="sourcePoint" />
            <mxPoint x="1101" y="900" as="targetPoint" />
          </mxGeometry>
        </mxCell>
        <mxCell id="5nUj0MCLF96ZCzCzL8qP-51" value="" style="endArrow=none;html=1;rounded=0;exitX=0.5;exitY=0;exitDx=0;exitDy=0;entryX=0.5;entryY=1;entryDx=0;entryDy=0;" parent="WIyWlLk6GJQsqaUBKTNV-1" source="5nUj0MCLF96ZCzCzL8qP-6" target="5nUj0MCLF96ZCzCzL8qP-39" edge="1">
          <mxGeometry width="50" height="50" relative="1" as="geometry">
            <mxPoint x="1011" y="720" as="sourcePoint" />
            <mxPoint x="1006" y="670" as="targetPoint" />
          </mxGeometry>
        </mxCell>
        <mxCell id="5nUj0MCLF96ZCzCzL8qP-52" value="" style="endArrow=none;html=1;rounded=0;entryX=0.394;entryY=1.068;entryDx=0;entryDy=0;entryPerimeter=0;exitX=0.5;exitY=0;exitDx=0;exitDy=0;" parent="WIyWlLk6GJQsqaUBKTNV-1" source="5nUj0MCLF96ZCzCzL8qP-39" target="5nUj0MCLF96ZCzCzL8qP-11" edge="1">
          <mxGeometry width="50" height="50" relative="1" as="geometry">
            <mxPoint x="1001" y="610" as="sourcePoint" />
            <mxPoint x="1101" y="550" as="targetPoint" />
          </mxGeometry>
        </mxCell>
        <mxCell id="5nUj0MCLF96ZCzCzL8qP-53" value="" style="endArrow=none;html=1;rounded=0;entryX=0.5;entryY=1;entryDx=0;entryDy=0;exitX=0.5;exitY=0;exitDx=0;exitDy=0;" parent="WIyWlLk6GJQsqaUBKTNV-1" source="5nUj0MCLF96ZCzCzL8qP-39" target="5nUj0MCLF96ZCzCzL8qP-12" edge="1">
          <mxGeometry width="50" height="50" relative="1" as="geometry">
            <mxPoint x="1001" y="610" as="sourcePoint" />
            <mxPoint x="921" y="550" as="targetPoint" />
          </mxGeometry>
        </mxCell>
        <mxCell id="5nUj0MCLF96ZCzCzL8qP-54" value="" style="endArrow=none;html=1;rounded=0;entryX=0;entryY=0.5;entryDx=0;entryDy=0;startArrow=none;" parent="WIyWlLk6GJQsqaUBKTNV-1" source="5nUj0MCLF96ZCzCzL8qP-37" target="5nUj0MCLF96ZCzCzL8qP-8" edge="1">
          <mxGeometry width="50" height="50" relative="1" as="geometry">
            <mxPoint x="1261" y="853" as="sourcePoint" />
            <mxPoint x="1311" y="800" as="targetPoint" />
          </mxGeometry>
        </mxCell>
        <mxCell id="5nUj0MCLF96ZCzCzL8qP-57" value="" style="endArrow=none;html=1;rounded=0;entryX=0;entryY=0.5;entryDx=0;entryDy=0;exitX=1;exitY=0.5;exitDx=0;exitDy=0;" parent="WIyWlLk6GJQsqaUBKTNV-1" source="5nUj0MCLF96ZCzCzL8qP-8" target="5nUj0MCLF96ZCzCzL8qP-38" edge="1">
          <mxGeometry width="50" height="50" relative="1" as="geometry">
            <mxPoint x="1551" y="850" as="sourcePoint" />
            <mxPoint x="1601" y="800" as="targetPoint" />
          </mxGeometry>
        </mxCell>
        <mxCell id="5nUj0MCLF96ZCzCzL8qP-58" value="" style="endArrow=none;html=1;rounded=0;entryX=0;entryY=0.5;entryDx=0;entryDy=0;exitX=1;exitY=0.5;exitDx=0;exitDy=0;" parent="WIyWlLk6GJQsqaUBKTNV-1" source="5nUj0MCLF96ZCzCzL8qP-38" target="5nUj0MCLF96ZCzCzL8qP-9" edge="1">
          <mxGeometry width="50" height="50" relative="1" as="geometry">
            <mxPoint x="1875.5" y="858" as="sourcePoint" />
            <mxPoint x="1925.5" y="805" as="targetPoint" />
          </mxGeometry>
        </mxCell>
        <mxCell id="5nUj0MCLF96ZCzCzL8qP-59" value="" style="endArrow=none;html=1;rounded=0;entryX=0.5;entryY=1;entryDx=0;entryDy=0;exitX=0.5;exitY=0;exitDx=0;exitDy=0;" parent="WIyWlLk6GJQsqaUBKTNV-1" source="5nUj0MCLF96ZCzCzL8qP-9" target="5nUj0MCLF96ZCzCzL8qP-42" edge="1">
          <mxGeometry width="50" height="50" relative="1" as="geometry">
            <mxPoint x="1836" y="830" as="sourcePoint" />
            <mxPoint x="1881" y="782.5" as="targetPoint" />
          </mxGeometry>
        </mxCell>
        <mxCell id="5nUj0MCLF96ZCzCzL8qP-60" value="" style="endArrow=none;html=1;rounded=0;exitX=0.5;exitY=0;exitDx=0;exitDy=0;entryX=0.5;entryY=1;entryDx=0;entryDy=0;" parent="WIyWlLk6GJQsqaUBKTNV-1" source="5nUj0MCLF96ZCzCzL8qP-42" target="5nUj0MCLF96ZCzCzL8qP-10" edge="1">
          <mxGeometry width="50" height="50" relative="1" as="geometry">
            <mxPoint x="1930.5" y="570" as="sourcePoint" />
            <mxPoint x="1980.5" y="520" as="targetPoint" />
          </mxGeometry>
        </mxCell>
        <mxCell id="5nUj0MCLF96ZCzCzL8qP-61" value="" style="endArrow=none;html=1;rounded=0;exitX=0.5;exitY=0;exitDx=0;exitDy=0;entryX=0.5;entryY=1;entryDx=0;entryDy=0;" parent="WIyWlLk6GJQsqaUBKTNV-1" source="5nUj0MCLF96ZCzCzL8qP-40" target="5nUj0MCLF96ZCzCzL8qP-7" edge="1">
          <mxGeometry width="50" height="50" relative="1" as="geometry">
            <mxPoint x="911" y="1050" as="sourcePoint" />
            <mxPoint x="1006" y="970" as="targetPoint" />
          </mxGeometry>
        </mxCell>
        <mxCell id="5nUj0MCLF96ZCzCzL8qP-62" value="" style="endArrow=none;html=1;rounded=0;entryX=0.5;entryY=0;entryDx=0;entryDy=0;exitX=0.5;exitY=1;exitDx=0;exitDy=0;" parent="WIyWlLk6GJQsqaUBKTNV-1" source="5nUj0MCLF96ZCzCzL8qP-7" target="5nUj0MCLF96ZCzCzL8qP-41" edge="1">
          <mxGeometry width="50" height="50" relative="1" as="geometry">
            <mxPoint x="1071" y="1000" as="sourcePoint" />
            <mxPoint x="1121" y="950" as="targetPoint" />
          </mxGeometry>
        </mxCell>
        <mxCell id="5nUj0MCLF96ZCzCzL8qP-63" value="" style="endArrow=none;html=1;rounded=0;entryX=0.5;entryY=1;entryDx=0;entryDy=0;exitX=0.5;exitY=0;exitDx=0;exitDy=0;" parent="WIyWlLk6GJQsqaUBKTNV-1" source="5nUj0MCLF96ZCzCzL8qP-13" target="5nUj0MCLF96ZCzCzL8qP-40" edge="1">
          <mxGeometry width="50" height="50" relative="1" as="geometry">
            <mxPoint x="786" y="1200" as="sourcePoint" />
            <mxPoint x="826" y="1130" as="targetPoint" />
          </mxGeometry>
        </mxCell>
        <mxCell id="5nUj0MCLF96ZCzCzL8qP-64" value="" style="endArrow=none;html=1;rounded=0;entryX=0.5;entryY=0;entryDx=0;entryDy=0;exitX=0.5;exitY=1;exitDx=0;exitDy=0;" parent="WIyWlLk6GJQsqaUBKTNV-1" source="5nUj0MCLF96ZCzCzL8qP-41" target="5nUj0MCLF96ZCzCzL8qP-14" edge="1">
          <mxGeometry width="50" height="50" relative="1" as="geometry">
            <mxPoint x="1341" y="930" as="sourcePoint" />
            <mxPoint x="1391" y="880" as="targetPoint" />
          </mxGeometry>
        </mxCell>
        <mxCell id="5nUj0MCLF96ZCzCzL8qP-37" value="작성" style="rhombus;whiteSpace=wrap;html=1;" parent="WIyWlLk6GJQsqaUBKTNV-1" vertex="1">
          <mxGeometry x="1231" y="832.5" width="100" height="45" as="geometry" />
        </mxCell>
        <mxCell id="5nUj0MCLF96ZCzCzL8qP-71" value="" style="endArrow=none;html=1;rounded=0;exitX=0.5;exitY=0;exitDx=0;exitDy=0;entryX=0.277;entryY=1.05;entryDx=0;entryDy=0;entryPerimeter=0;" parent="WIyWlLk6GJQsqaUBKTNV-1" source="5nUj0MCLF96ZCzCzL8qP-0" target="5nUj0MCLF96ZCzCzL8qP-81" edge="1">
          <mxGeometry width="50" height="50" relative="1" as="geometry">
            <mxPoint x="341" y="835" as="sourcePoint" />
            <mxPoint x="431" y="745" as="targetPoint" />
          </mxGeometry>
        </mxCell>
        <mxCell id="5nUj0MCLF96ZCzCzL8qP-72" value="" style="endArrow=none;html=1;rounded=0;exitX=0.5;exitY=0;exitDx=0;exitDy=0;entryX=0.5;entryY=1;entryDx=0;entryDy=0;" parent="WIyWlLk6GJQsqaUBKTNV-1" source="5nUj0MCLF96ZCzCzL8qP-0" target="5nUj0MCLF96ZCzCzL8qP-80" edge="1">
          <mxGeometry width="50" height="50" relative="1" as="geometry">
            <mxPoint x="331" y="784.5" as="sourcePoint" />
            <mxPoint x="371" y="735" as="targetPoint" />
          </mxGeometry>
        </mxCell>
        <mxCell id="5nUj0MCLF96ZCzCzL8qP-73" value="" style="endArrow=none;html=1;rounded=0;exitX=0.5;exitY=0;exitDx=0;exitDy=0;entryX=0.5;entryY=1;entryDx=0;entryDy=0;" parent="WIyWlLk6GJQsqaUBKTNV-1" source="5nUj0MCLF96ZCzCzL8qP-0" target="5nUj0MCLF96ZCzCzL8qP-79" edge="1">
          <mxGeometry width="50" height="50" relative="1" as="geometry">
            <mxPoint x="391" y="707.25" as="sourcePoint" />
            <mxPoint x="321" y="745" as="targetPoint" />
          </mxGeometry>
        </mxCell>
        <mxCell id="5nUj0MCLF96ZCzCzL8qP-74" value="" style="endArrow=none;html=1;rounded=0;exitX=0.5;exitY=0;exitDx=0;exitDy=0;entryX=0.714;entryY=0.95;entryDx=0;entryDy=0;entryPerimeter=0;" parent="WIyWlLk6GJQsqaUBKTNV-1" source="5nUj0MCLF96ZCzCzL8qP-0" target="5nUj0MCLF96ZCzCzL8qP-78" edge="1">
          <mxGeometry width="50" height="50" relative="1" as="geometry">
            <mxPoint x="281" y="754.5" as="sourcePoint" />
            <mxPoint x="281" y="755" as="targetPoint" />
          </mxGeometry>
        </mxCell>
        <mxCell id="5nUj0MCLF96ZCzCzL8qP-75" value="" style="endArrow=none;html=1;rounded=0;exitX=0.5;exitY=0;exitDx=0;exitDy=0;entryX=1;entryY=1;entryDx=0;entryDy=0;" parent="WIyWlLk6GJQsqaUBKTNV-1" source="5nUj0MCLF96ZCzCzL8qP-0" target="5nUj0MCLF96ZCzCzL8qP-77" edge="1">
          <mxGeometry width="50" height="50" relative="1" as="geometry">
            <mxPoint x="361" y="784.5" as="sourcePoint" />
            <mxPoint x="251" y="785" as="targetPoint" />
          </mxGeometry>
        </mxCell>
        <mxCell id="5nUj0MCLF96ZCzCzL8qP-76" value="" style="endArrow=none;html=1;rounded=0;exitX=0.5;exitY=0;exitDx=0;exitDy=0;entryX=0;entryY=1;entryDx=0;entryDy=0;" parent="WIyWlLk6GJQsqaUBKTNV-1" source="5nUj0MCLF96ZCzCzL8qP-0" target="5nUj0MCLF96ZCzCzL8qP-82" edge="1">
          <mxGeometry width="50" height="50" relative="1" as="geometry">
            <mxPoint x="361" y="840" as="sourcePoint" />
            <mxPoint x="480" y="745" as="targetPoint" />
          </mxGeometry>
        </mxCell>
        <mxCell id="5nUj0MCLF96ZCzCzL8qP-77" value="이름" style="ellipse;whiteSpace=wrap;html=1;" parent="WIyWlLk6GJQsqaUBKTNV-1" vertex="1">
          <mxGeometry x="151" y="765" width="70" height="40" as="geometry" />
        </mxCell>
        <mxCell id="5nUj0MCLF96ZCzCzL8qP-78" value="성별" style="ellipse;whiteSpace=wrap;html=1;" parent="WIyWlLk6GJQsqaUBKTNV-1" vertex="1">
          <mxGeometry x="190" y="725" width="70" height="40" as="geometry" />
        </mxCell>
        <mxCell id="5nUj0MCLF96ZCzCzL8qP-79" value="연락처" style="ellipse;whiteSpace=wrap;html=1;" parent="WIyWlLk6GJQsqaUBKTNV-1" vertex="1">
          <mxGeometry x="250" y="695" width="70" height="40" as="geometry" />
        </mxCell>
        <mxCell id="5nUj0MCLF96ZCzCzL8qP-80" value="&lt;u&gt;ID&lt;/u&gt;" style="ellipse;whiteSpace=wrap;html=1;" parent="WIyWlLk6GJQsqaUBKTNV-1" vertex="1">
          <mxGeometry x="321" y="685" width="70" height="40" as="geometry" />
        </mxCell>
        <mxCell id="5nUj0MCLF96ZCzCzL8qP-81" value="PW" style="ellipse;whiteSpace=wrap;html=1;" parent="WIyWlLk6GJQsqaUBKTNV-1" vertex="1">
          <mxGeometry x="391" y="685" width="70" height="40" as="geometry" />
        </mxCell>
        <mxCell id="5nUj0MCLF96ZCzCzL8qP-82" value="생년월일" style="ellipse;whiteSpace=wrap;html=1;" parent="WIyWlLk6GJQsqaUBKTNV-1" vertex="1">
          <mxGeometry x="451" y="705" width="70" height="40" as="geometry" />
        </mxCell>
        <mxCell id="5nUj0MCLF96ZCzCzL8qP-84" value="" style="endArrow=none;html=1;rounded=0;exitX=0.5;exitY=0;exitDx=0;exitDy=0;entryX=0.043;entryY=0.656;entryDx=0;entryDy=0;entryPerimeter=0;" parent="WIyWlLk6GJQsqaUBKTNV-1" source="5nUj0MCLF96ZCzCzL8qP-0" target="vL6Nq_Aky3gKRxV9vYMv-30" edge="1">
          <mxGeometry width="50" height="50" relative="1" as="geometry">
            <mxPoint x="356" y="837.5" as="sourcePoint" />
            <mxPoint x="501" y="765" as="targetPoint" />
          </mxGeometry>
        </mxCell>
        <mxCell id="5nUj0MCLF96ZCzCzL8qP-85" value="" style="endArrow=none;html=1;rounded=0;exitX=1;exitY=0.5;exitDx=0;exitDy=0;entryX=0.3;entryY=0.975;entryDx=0;entryDy=0;entryPerimeter=0;" parent="WIyWlLk6GJQsqaUBKTNV-1" source="5nUj0MCLF96ZCzCzL8qP-6" target="5nUj0MCLF96ZCzCzL8qP-94" edge="1">
          <mxGeometry width="50" height="50" relative="1" as="geometry">
            <mxPoint x="1046" y="700" as="sourcePoint" />
            <mxPoint x="1131" y="620" as="targetPoint" />
          </mxGeometry>
        </mxCell>
        <mxCell id="5nUj0MCLF96ZCzCzL8qP-87" value="이름" style="ellipse;whiteSpace=wrap;html=1;" parent="WIyWlLk6GJQsqaUBKTNV-1" vertex="1">
          <mxGeometry x="1041" y="575" width="70" height="40" as="geometry" />
        </mxCell>
        <mxCell id="5nUj0MCLF96ZCzCzL8qP-88" value="" style="endArrow=none;html=1;rounded=0;exitX=1;exitY=0.5;exitDx=0;exitDy=0;entryX=0;entryY=0.5;entryDx=0;entryDy=0;" parent="WIyWlLk6GJQsqaUBKTNV-1" source="5nUj0MCLF96ZCzCzL8qP-6" target="5nUj0MCLF96ZCzCzL8qP-95" edge="1">
          <mxGeometry width="50" height="50" relative="1" as="geometry">
            <mxPoint x="1051" y="700" as="sourcePoint" />
            <mxPoint x="1170" y="650" as="targetPoint" />
          </mxGeometry>
        </mxCell>
        <mxCell id="5nUj0MCLF96ZCzCzL8qP-89" value="" style="endArrow=none;html=1;rounded=0;exitX=1;exitY=0.5;exitDx=0;exitDy=0;entryX=0;entryY=0.5;entryDx=0;entryDy=0;" parent="WIyWlLk6GJQsqaUBKTNV-1" source="5nUj0MCLF96ZCzCzL8qP-6" target="5nUj0MCLF96ZCzCzL8qP-96" edge="1">
          <mxGeometry width="50" height="50" relative="1" as="geometry">
            <mxPoint x="1066" y="720" as="sourcePoint" />
            <mxPoint x="1181" y="690" as="targetPoint" />
          </mxGeometry>
        </mxCell>
        <mxCell id="5nUj0MCLF96ZCzCzL8qP-90" value="" style="endArrow=none;html=1;rounded=0;exitX=1;exitY=0.5;exitDx=0;exitDy=0;entryX=0;entryY=0.5;entryDx=0;entryDy=0;" parent="WIyWlLk6GJQsqaUBKTNV-1" source="5nUj0MCLF96ZCzCzL8qP-6" target="5nUj0MCLF96ZCzCzL8qP-97" edge="1">
          <mxGeometry width="50" height="50" relative="1" as="geometry">
            <mxPoint x="1076" y="730" as="sourcePoint" />
            <mxPoint x="1181" y="730" as="targetPoint" />
          </mxGeometry>
        </mxCell>
        <mxCell id="5nUj0MCLF96ZCzCzL8qP-91" value="" style="endArrow=none;html=1;rounded=0;exitX=1;exitY=0.5;exitDx=0;exitDy=0;entryX=0;entryY=0.5;entryDx=0;entryDy=0;" parent="WIyWlLk6GJQsqaUBKTNV-1" source="5nUj0MCLF96ZCzCzL8qP-6" target="5nUj0MCLF96ZCzCzL8qP-98" edge="1">
          <mxGeometry width="50" height="50" relative="1" as="geometry">
            <mxPoint x="1086" y="740" as="sourcePoint" />
            <mxPoint x="1191" y="760" as="targetPoint" />
          </mxGeometry>
        </mxCell>
        <mxCell id="5nUj0MCLF96ZCzCzL8qP-92" value="" style="endArrow=none;html=1;rounded=0;exitX=1;exitY=0.5;exitDx=0;exitDy=0;entryX=0.116;entryY=0.289;entryDx=0;entryDy=0;entryPerimeter=0;" parent="WIyWlLk6GJQsqaUBKTNV-1" source="5nUj0MCLF96ZCzCzL8qP-6" target="vL6Nq_Aky3gKRxV9vYMv-31" edge="1">
          <mxGeometry width="50" height="50" relative="1" as="geometry">
            <mxPoint x="1096" y="750" as="sourcePoint" />
            <mxPoint x="1141.98" y="758" as="targetPoint" />
          </mxGeometry>
        </mxCell>
        <mxCell id="5nUj0MCLF96ZCzCzL8qP-93" value="" style="endArrow=none;html=1;rounded=0;exitX=1;exitY=0.5;exitDx=0;exitDy=0;" parent="WIyWlLk6GJQsqaUBKTNV-1" source="5nUj0MCLF96ZCzCzL8qP-6" target="5nUj0MCLF96ZCzCzL8qP-87" edge="1">
          <mxGeometry width="50" height="50" relative="1" as="geometry">
            <mxPoint x="1106" y="760" as="sourcePoint" />
            <mxPoint x="1091" y="610" as="targetPoint" />
          </mxGeometry>
        </mxCell>
        <mxCell id="5nUj0MCLF96ZCzCzL8qP-94" value="성별" style="ellipse;whiteSpace=wrap;html=1;" parent="WIyWlLk6GJQsqaUBKTNV-1" vertex="1">
          <mxGeometry x="1096" y="560" width="70" height="40" as="geometry" />
        </mxCell>
        <mxCell id="5nUj0MCLF96ZCzCzL8qP-95" value="연락처" style="ellipse;whiteSpace=wrap;html=1;" parent="WIyWlLk6GJQsqaUBKTNV-1" vertex="1">
          <mxGeometry x="1166.12" y="560" width="70" height="40" as="geometry" />
        </mxCell>
        <mxCell id="5nUj0MCLF96ZCzCzL8qP-96" value="&lt;u&gt;ID&lt;/u&gt;" style="ellipse;whiteSpace=wrap;html=1;" parent="WIyWlLk6GJQsqaUBKTNV-1" vertex="1">
          <mxGeometry x="1202" y="600" width="70" height="40" as="geometry" />
        </mxCell>
        <mxCell id="5nUj0MCLF96ZCzCzL8qP-97" value="PW" style="ellipse;whiteSpace=wrap;html=1;" parent="WIyWlLk6GJQsqaUBKTNV-1" vertex="1">
          <mxGeometry x="1211" y="640" width="70" height="40" as="geometry" />
        </mxCell>
        <mxCell id="5nUj0MCLF96ZCzCzL8qP-98" value="생년월일" style="ellipse;whiteSpace=wrap;html=1;" parent="WIyWlLk6GJQsqaUBKTNV-1" vertex="1">
          <mxGeometry x="1221" y="680" width="70" height="40" as="geometry" />
        </mxCell>
        <mxCell id="5nUj0MCLF96ZCzCzL8qP-100" value="" style="endArrow=none;html=1;rounded=0;exitX=1;exitY=0.5;exitDx=0;exitDy=0;" parent="WIyWlLk6GJQsqaUBKTNV-1" source="5nUj0MCLF96ZCzCzL8qP-7" edge="1">
          <mxGeometry width="50" height="50" relative="1" as="geometry">
            <mxPoint x="1231" y="990" as="sourcePoint" />
            <mxPoint x="1141" y="940" as="targetPoint" />
          </mxGeometry>
        </mxCell>
        <mxCell id="5nUj0MCLF96ZCzCzL8qP-101" value="" style="endArrow=none;html=1;rounded=0;exitX=1;exitY=0.5;exitDx=0;exitDy=0;entryX=0.075;entryY=0.797;entryDx=0;entryDy=0;entryPerimeter=0;" parent="WIyWlLk6GJQsqaUBKTNV-1" source="5nUj0MCLF96ZCzCzL8qP-7" edge="1" target="5nUj0MCLF96ZCzCzL8qP-108">
          <mxGeometry width="50" height="50" relative="1" as="geometry">
            <mxPoint x="1056" y="990" as="sourcePoint" />
            <mxPoint x="1191" y="960" as="targetPoint" />
          </mxGeometry>
        </mxCell>
        <mxCell id="5nUj0MCLF96ZCzCzL8qP-102" value="" style="endArrow=none;html=1;rounded=0;exitX=1;exitY=0.5;exitDx=0;exitDy=0;entryX=0;entryY=0.5;entryDx=0;entryDy=0;" parent="WIyWlLk6GJQsqaUBKTNV-1" source="5nUj0MCLF96ZCzCzL8qP-7" edge="1" target="vL6Nq_Aky3gKRxV9vYMv-21">
          <mxGeometry width="50" height="50" relative="1" as="geometry">
            <mxPoint x="1066" y="1000" as="sourcePoint" />
            <mxPoint x="1241" y="990" as="targetPoint" />
          </mxGeometry>
        </mxCell>
        <mxCell id="5nUj0MCLF96ZCzCzL8qP-103" value="" style="endArrow=none;html=1;rounded=0;exitX=1;exitY=0.5;exitDx=0;exitDy=0;entryX=0;entryY=0;entryDx=0;entryDy=0;" parent="WIyWlLk6GJQsqaUBKTNV-1" source="5nUj0MCLF96ZCzCzL8qP-7" target="5nUj0MCLF96ZCzCzL8qP-110" edge="1">
          <mxGeometry width="50" height="50" relative="1" as="geometry">
            <mxPoint x="1076" y="1010" as="sourcePoint" />
            <mxPoint x="1241" y="1020" as="targetPoint" />
          </mxGeometry>
        </mxCell>
        <mxCell id="5nUj0MCLF96ZCzCzL8qP-104" value="" style="endArrow=none;html=1;rounded=0;exitX=1;exitY=0.5;exitDx=0;exitDy=0;entryX=0.271;entryY=0.025;entryDx=0;entryDy=0;entryPerimeter=0;" parent="WIyWlLk6GJQsqaUBKTNV-1" source="5nUj0MCLF96ZCzCzL8qP-7" target="5nUj0MCLF96ZCzCzL8qP-111" edge="1">
          <mxGeometry width="50" height="50" relative="1" as="geometry">
            <mxPoint x="1086" y="1020" as="sourcePoint" />
            <mxPoint x="1191" y="1040" as="targetPoint" />
          </mxGeometry>
        </mxCell>
        <mxCell id="5nUj0MCLF96ZCzCzL8qP-105" value="" style="endArrow=none;html=1;rounded=0;exitX=1;exitY=0.5;exitDx=0;exitDy=0;entryX=0.343;entryY=-0.075;entryDx=0;entryDy=0;entryPerimeter=0;" parent="WIyWlLk6GJQsqaUBKTNV-1" source="5nUj0MCLF96ZCzCzL8qP-7" target="5nUj0MCLF96ZCzCzL8qP-112" edge="1">
          <mxGeometry width="50" height="50" relative="1" as="geometry">
            <mxPoint x="1096" y="1030" as="sourcePoint" />
            <mxPoint x="1151" y="1050" as="targetPoint" />
          </mxGeometry>
        </mxCell>
        <mxCell id="5nUj0MCLF96ZCzCzL8qP-106" value="" style="endArrow=none;html=1;rounded=0;exitX=1;exitY=0.5;exitDx=0;exitDy=0;entryX=0.377;entryY=0.044;entryDx=0;entryDy=0;entryPerimeter=0;" parent="WIyWlLk6GJQsqaUBKTNV-1" source="5nUj0MCLF96ZCzCzL8qP-7" target="vL6Nq_Aky3gKRxV9vYMv-32" edge="1">
          <mxGeometry width="50" height="50" relative="1" as="geometry">
            <mxPoint x="1106" y="1040" as="sourcePoint" />
            <mxPoint x="1096.9699999999998" y="1042" as="targetPoint" />
          </mxGeometry>
        </mxCell>
        <mxCell id="5nUj0MCLF96ZCzCzL8qP-107" value="이름" style="ellipse;whiteSpace=wrap;html=1;" parent="WIyWlLk6GJQsqaUBKTNV-1" vertex="1">
          <mxGeometry x="1131" y="902.5" width="70" height="40" as="geometry" />
        </mxCell>
        <mxCell id="5nUj0MCLF96ZCzCzL8qP-108" value="성별" style="ellipse;whiteSpace=wrap;html=1;" parent="WIyWlLk6GJQsqaUBKTNV-1" vertex="1">
          <mxGeometry x="1190" y="917.5" width="70" height="40" as="geometry" />
        </mxCell>
        <mxCell id="5nUj0MCLF96ZCzCzL8qP-109" value="연락처" style="ellipse;whiteSpace=wrap;html=1;" parent="WIyWlLk6GJQsqaUBKTNV-1" vertex="1">
          <mxGeometry x="1246.12" y="950" width="70" height="40" as="geometry" />
        </mxCell>
        <mxCell id="5nUj0MCLF96ZCzCzL8qP-110" value="&lt;u&gt;ID&lt;/u&gt;" style="ellipse;whiteSpace=wrap;html=1;" parent="WIyWlLk6GJQsqaUBKTNV-1" vertex="1">
          <mxGeometry x="1236.12" y="990" width="70" height="40" as="geometry" />
        </mxCell>
        <mxCell id="5nUj0MCLF96ZCzCzL8qP-111" value="PW" style="ellipse;whiteSpace=wrap;html=1;" parent="WIyWlLk6GJQsqaUBKTNV-1" vertex="1">
          <mxGeometry x="1231" y="1030" width="70" height="40" as="geometry" />
        </mxCell>
        <mxCell id="5nUj0MCLF96ZCzCzL8qP-112" value="생년월일" style="ellipse;whiteSpace=wrap;html=1;" parent="WIyWlLk6GJQsqaUBKTNV-1" vertex="1">
          <mxGeometry x="1176.12" y="1060" width="70" height="40" as="geometry" />
        </mxCell>
        <mxCell id="5nUj0MCLF96ZCzCzL8qP-114" value="" style="endArrow=none;html=1;rounded=0;entryX=0.5;entryY=1;entryDx=0;entryDy=0;exitX=0.957;exitY=0.325;exitDx=0;exitDy=0;exitPerimeter=0;" parent="WIyWlLk6GJQsqaUBKTNV-1" source="5nUj0MCLF96ZCzCzL8qP-122" target="5nUj0MCLF96ZCzCzL8qP-9" edge="1">
          <mxGeometry width="50" height="50" relative="1" as="geometry">
            <mxPoint x="1815.5" y="955" as="sourcePoint" />
            <mxPoint x="1895.5" y="945" as="targetPoint" />
          </mxGeometry>
        </mxCell>
        <mxCell id="5nUj0MCLF96ZCzCzL8qP-115" value="" style="endArrow=none;html=1;rounded=0;entryX=0.5;entryY=1;entryDx=0;entryDy=0;exitX=0.729;exitY=0;exitDx=0;exitDy=0;exitPerimeter=0;" parent="WIyWlLk6GJQsqaUBKTNV-1" source="5nUj0MCLF96ZCzCzL8qP-123" target="5nUj0MCLF96ZCzCzL8qP-9" edge="1">
          <mxGeometry width="50" height="50" relative="1" as="geometry">
            <mxPoint x="1855.5" y="955" as="sourcePoint" />
            <mxPoint x="1960.5" y="875" as="targetPoint" />
          </mxGeometry>
        </mxCell>
        <mxCell id="5nUj0MCLF96ZCzCzL8qP-116" value="" style="endArrow=none;html=1;rounded=0;entryX=0.5;entryY=1;entryDx=0;entryDy=0;exitX=0.653;exitY=0.065;exitDx=0;exitDy=0;exitPerimeter=0;" parent="WIyWlLk6GJQsqaUBKTNV-1" source="5nUj0MCLF96ZCzCzL8qP-124" target="5nUj0MCLF96ZCzCzL8qP-9" edge="1">
          <mxGeometry width="50" height="50" relative="1" as="geometry">
            <mxPoint x="1986" y="982.5" as="sourcePoint" />
            <mxPoint x="2046" y="872.5" as="targetPoint" />
          </mxGeometry>
        </mxCell>
        <mxCell id="5nUj0MCLF96ZCzCzL8qP-117" value="" style="endArrow=none;html=1;rounded=0;entryX=0.5;entryY=1;entryDx=0;entryDy=0;exitX=0.5;exitY=0;exitDx=0;exitDy=0;" parent="WIyWlLk6GJQsqaUBKTNV-1" source="5nUj0MCLF96ZCzCzL8qP-125" target="5nUj0MCLF96ZCzCzL8qP-9" edge="1">
          <mxGeometry width="50" height="50" relative="1" as="geometry">
            <mxPoint x="2031" y="952.5" as="sourcePoint" />
            <mxPoint x="2076" y="905" as="targetPoint" />
          </mxGeometry>
        </mxCell>
        <mxCell id="5nUj0MCLF96ZCzCzL8qP-118" value="" style="endArrow=none;html=1;rounded=0;entryX=0.5;entryY=1;entryDx=0;entryDy=0;exitX=0.286;exitY=0.05;exitDx=0;exitDy=0;exitPerimeter=0;" parent="WIyWlLk6GJQsqaUBKTNV-1" source="5nUj0MCLF96ZCzCzL8qP-126" target="5nUj0MCLF96ZCzCzL8qP-9" edge="1">
          <mxGeometry width="50" height="50" relative="1" as="geometry">
            <mxPoint x="2071" y="952.5" as="sourcePoint" />
            <mxPoint x="2086" y="915" as="targetPoint" />
          </mxGeometry>
        </mxCell>
        <mxCell id="5nUj0MCLF96ZCzCzL8qP-119" value="" style="endArrow=none;html=1;rounded=0;entryX=0.5;entryY=1;entryDx=0;entryDy=0;exitX=0.286;exitY=-0.025;exitDx=0;exitDy=0;exitPerimeter=0;" parent="WIyWlLk6GJQsqaUBKTNV-1" source="5nUj0MCLF96ZCzCzL8qP-127" target="5nUj0MCLF96ZCzCzL8qP-9" edge="1">
          <mxGeometry width="50" height="50" relative="1" as="geometry">
            <mxPoint x="2111" y="942.5" as="sourcePoint" />
            <mxPoint x="2096" y="925" as="targetPoint" />
          </mxGeometry>
        </mxCell>
        <mxCell id="5nUj0MCLF96ZCzCzL8qP-120" value="" style="endArrow=none;html=1;rounded=0;entryX=0.5;entryY=1;entryDx=0;entryDy=0;exitX=0.058;exitY=0.322;exitDx=0;exitDy=0;exitPerimeter=0;" parent="WIyWlLk6GJQsqaUBKTNV-1" source="vL6Nq_Aky3gKRxV9vYMv-33" target="5nUj0MCLF96ZCzCzL8qP-9" edge="1">
          <mxGeometry width="50" height="50" relative="1" as="geometry">
            <mxPoint x="2206.03" y="917.5" as="sourcePoint" />
            <mxPoint x="2106" y="935" as="targetPoint" />
          </mxGeometry>
        </mxCell>
        <mxCell id="5nUj0MCLF96ZCzCzL8qP-122" value="이름" style="ellipse;whiteSpace=wrap;html=1;" parent="WIyWlLk6GJQsqaUBKTNV-1" vertex="1">
          <mxGeometry x="1855.5" y="930" width="70" height="40" as="geometry" />
        </mxCell>
        <mxCell id="5nUj0MCLF96ZCzCzL8qP-123" value="성별" style="ellipse;whiteSpace=wrap;html=1;" parent="WIyWlLk6GJQsqaUBKTNV-1" vertex="1">
          <mxGeometry x="1870.5" y="980" width="70" height="40" as="geometry" />
        </mxCell>
        <mxCell id="5nUj0MCLF96ZCzCzL8qP-124" value="연락처" style="ellipse;whiteSpace=wrap;html=1;" parent="WIyWlLk6GJQsqaUBKTNV-1" vertex="1">
          <mxGeometry x="1940.5" y="990" width="70" height="40" as="geometry" />
        </mxCell>
        <mxCell id="5nUj0MCLF96ZCzCzL8qP-125" value="&lt;u&gt;ID&lt;/u&gt;" style="ellipse;whiteSpace=wrap;html=1;" parent="WIyWlLk6GJQsqaUBKTNV-1" vertex="1">
          <mxGeometry x="2011" y="997.5" width="70" height="40" as="geometry" />
        </mxCell>
        <mxCell id="5nUj0MCLF96ZCzCzL8qP-126" value="PW" style="ellipse;whiteSpace=wrap;html=1;" parent="WIyWlLk6GJQsqaUBKTNV-1" vertex="1">
          <mxGeometry x="2091" y="982.5" width="70" height="40" as="geometry" />
        </mxCell>
        <mxCell id="5nUj0MCLF96ZCzCzL8qP-127" value="생년월일" style="ellipse;whiteSpace=wrap;html=1;" parent="WIyWlLk6GJQsqaUBKTNV-1" vertex="1">
          <mxGeometry x="2151" y="957.5" width="70" height="40" as="geometry" />
        </mxCell>
        <mxCell id="5nUj0MCLF96ZCzCzL8qP-131" value="" style="endArrow=none;html=1;rounded=0;exitX=0;exitY=0.5;exitDx=0;exitDy=0;entryX=0.5;entryY=1;entryDx=0;entryDy=0;" parent="WIyWlLk6GJQsqaUBKTNV-1" source="5nUj0MCLF96ZCzCzL8qP-12" target="5nUj0MCLF96ZCzCzL8qP-143" edge="1">
          <mxGeometry width="50" height="50" relative="1" as="geometry">
            <mxPoint x="671" y="390" as="sourcePoint" />
            <mxPoint x="681" y="290" as="targetPoint" />
          </mxGeometry>
        </mxCell>
        <mxCell id="5nUj0MCLF96ZCzCzL8qP-132" value="" style="endArrow=none;html=1;rounded=0;exitX=0;exitY=0.5;exitDx=0;exitDy=0;entryX=1;entryY=1;entryDx=0;entryDy=0;" parent="WIyWlLk6GJQsqaUBKTNV-1" source="5nUj0MCLF96ZCzCzL8qP-12" target="5nUj0MCLF96ZCzCzL8qP-144" edge="1">
          <mxGeometry width="50" height="50" relative="1" as="geometry">
            <mxPoint x="721" y="420" as="sourcePoint" />
            <mxPoint x="651" y="300" as="targetPoint" />
          </mxGeometry>
        </mxCell>
        <mxCell id="5nUj0MCLF96ZCzCzL8qP-133" value="" style="endArrow=none;html=1;rounded=0;exitX=0;exitY=0.5;exitDx=0;exitDy=0;entryX=0.972;entryY=0.829;entryDx=0;entryDy=0;entryPerimeter=0;" parent="WIyWlLk6GJQsqaUBKTNV-1" source="5nUj0MCLF96ZCzCzL8qP-12" target="5nUj0MCLF96ZCzCzL8qP-145" edge="1">
          <mxGeometry width="50" height="50" relative="1" as="geometry">
            <mxPoint x="711" y="420" as="sourcePoint" />
            <mxPoint x="611" y="320" as="targetPoint" />
          </mxGeometry>
        </mxCell>
        <mxCell id="5nUj0MCLF96ZCzCzL8qP-134" value="" style="endArrow=none;html=1;rounded=0;entryX=0;entryY=0.5;entryDx=0;entryDy=0;exitX=1;exitY=0.5;exitDx=0;exitDy=0;" parent="WIyWlLk6GJQsqaUBKTNV-1" source="5nUj0MCLF96ZCzCzL8qP-146" target="5nUj0MCLF96ZCzCzL8qP-12" edge="1">
          <mxGeometry width="50" height="50" relative="1" as="geometry">
            <mxPoint x="591" y="340" as="sourcePoint" />
            <mxPoint x="721" y="340" as="targetPoint" />
          </mxGeometry>
        </mxCell>
        <mxCell id="5nUj0MCLF96ZCzCzL8qP-135" value="" style="endArrow=none;html=1;rounded=0;entryX=0;entryY=0.5;entryDx=0;entryDy=0;exitX=1;exitY=0.5;exitDx=0;exitDy=0;" parent="WIyWlLk6GJQsqaUBKTNV-1" source="5nUj0MCLF96ZCzCzL8qP-147" target="5nUj0MCLF96ZCzCzL8qP-12" edge="1">
          <mxGeometry width="50" height="50" relative="1" as="geometry">
            <mxPoint x="581" y="370" as="sourcePoint" />
            <mxPoint x="721" y="340" as="targetPoint" />
          </mxGeometry>
        </mxCell>
        <mxCell id="5nUj0MCLF96ZCzCzL8qP-136" value="" style="endArrow=none;html=1;rounded=0;entryX=0;entryY=0.5;entryDx=0;entryDy=0;exitX=1;exitY=0.5;exitDx=0;exitDy=0;" parent="WIyWlLk6GJQsqaUBKTNV-1" source="5nUj0MCLF96ZCzCzL8qP-148" target="5nUj0MCLF96ZCzCzL8qP-12" edge="1">
          <mxGeometry width="50" height="50" relative="1" as="geometry">
            <mxPoint x="571" y="400" as="sourcePoint" />
            <mxPoint x="721" y="340" as="targetPoint" />
          </mxGeometry>
        </mxCell>
        <mxCell id="5nUj0MCLF96ZCzCzL8qP-137" value="" style="endArrow=none;html=1;rounded=0;entryX=0;entryY=0.5;entryDx=0;entryDy=0;exitX=1;exitY=0.25;exitDx=0;exitDy=0;exitPerimeter=0;" parent="WIyWlLk6GJQsqaUBKTNV-1" source="5nUj0MCLF96ZCzCzL8qP-149" target="5nUj0MCLF96ZCzCzL8qP-12" edge="1">
          <mxGeometry width="50" height="50" relative="1" as="geometry">
            <mxPoint x="571" y="440" as="sourcePoint" />
            <mxPoint x="721" y="340" as="targetPoint" />
          </mxGeometry>
        </mxCell>
        <mxCell id="5nUj0MCLF96ZCzCzL8qP-138" value="" style="endArrow=none;html=1;rounded=0;entryX=0;entryY=0.5;entryDx=0;entryDy=0;exitX=0.957;exitY=0.175;exitDx=0;exitDy=0;exitPerimeter=0;" parent="WIyWlLk6GJQsqaUBKTNV-1" source="5nUj0MCLF96ZCzCzL8qP-150" target="5nUj0MCLF96ZCzCzL8qP-12" edge="1">
          <mxGeometry width="50" height="50" relative="1" as="geometry">
            <mxPoint x="591" y="470" as="sourcePoint" />
            <mxPoint x="721" y="340" as="targetPoint" />
          </mxGeometry>
        </mxCell>
        <mxCell id="5nUj0MCLF96ZCzCzL8qP-139" value="" style="endArrow=none;html=1;rounded=0;entryX=0;entryY=0.5;entryDx=0;entryDy=0;exitX=1;exitY=0;exitDx=0;exitDy=0;" parent="WIyWlLk6GJQsqaUBKTNV-1" source="5nUj0MCLF96ZCzCzL8qP-151" target="5nUj0MCLF96ZCzCzL8qP-12" edge="1">
          <mxGeometry width="50" height="50" relative="1" as="geometry">
            <mxPoint x="611" y="490" as="sourcePoint" />
            <mxPoint x="671" y="420" as="targetPoint" />
          </mxGeometry>
        </mxCell>
        <mxCell id="5nUj0MCLF96ZCzCzL8qP-140" value="" style="endArrow=none;html=1;rounded=0;entryX=0;entryY=0.5;entryDx=0;entryDy=0;exitX=0.5;exitY=0;exitDx=0;exitDy=0;" parent="WIyWlLk6GJQsqaUBKTNV-1" source="vL6Nq_Aky3gKRxV9vYMv-37" target="5nUj0MCLF96ZCzCzL8qP-12" edge="1">
          <mxGeometry width="50" height="50" relative="1" as="geometry">
            <mxPoint x="776" y="400" as="sourcePoint" />
            <mxPoint x="716" y="440" as="targetPoint" />
          </mxGeometry>
        </mxCell>
        <mxCell id="5nUj0MCLF96ZCzCzL8qP-141" value="" style="endArrow=none;html=1;rounded=0;entryX=0;entryY=0.5;entryDx=0;entryDy=0;exitX=0.629;exitY=0.05;exitDx=0;exitDy=0;exitPerimeter=0;" parent="WIyWlLk6GJQsqaUBKTNV-1" source="5nUj0MCLF96ZCzCzL8qP-153" target="5nUj0MCLF96ZCzCzL8qP-12" edge="1">
          <mxGeometry width="50" height="50" relative="1" as="geometry">
            <mxPoint x="661" y="520" as="sourcePoint" />
            <mxPoint x="691" y="440" as="targetPoint" />
          </mxGeometry>
        </mxCell>
        <mxCell id="5nUj0MCLF96ZCzCzL8qP-142" value="" style="endArrow=none;html=1;rounded=0;entryX=0;entryY=0.5;entryDx=0;entryDy=0;exitX=0.671;exitY=-0.05;exitDx=0;exitDy=0;exitPerimeter=0;" parent="WIyWlLk6GJQsqaUBKTNV-1" source="5nUj0MCLF96ZCzCzL8qP-152" target="5nUj0MCLF96ZCzCzL8qP-12" edge="1">
          <mxGeometry width="50" height="50" relative="1" as="geometry">
            <mxPoint x="641" y="510" as="sourcePoint" />
            <mxPoint x="661" y="430" as="targetPoint" />
          </mxGeometry>
        </mxCell>
        <mxCell id="5nUj0MCLF96ZCzCzL8qP-143" value="&lt;u&gt;음악번호&lt;/u&gt;" style="ellipse;whiteSpace=wrap;html=1;" parent="WIyWlLk6GJQsqaUBKTNV-1" vertex="1">
          <mxGeometry x="800" y="130" width="70" height="40" as="geometry" />
        </mxCell>
        <mxCell id="5nUj0MCLF96ZCzCzL8qP-144" value="노래제목" style="ellipse;whiteSpace=wrap;html=1;" parent="WIyWlLk6GJQsqaUBKTNV-1" vertex="1">
          <mxGeometry x="730" y="120" width="70" height="40" as="geometry" />
        </mxCell>
        <mxCell id="5nUj0MCLF96ZCzCzL8qP-145" value="아티스트" style="ellipse;whiteSpace=wrap;html=1;" parent="WIyWlLk6GJQsqaUBKTNV-1" vertex="1">
          <mxGeometry x="660" y="130" width="70" height="40" as="geometry" />
        </mxCell>
        <mxCell id="5nUj0MCLF96ZCzCzL8qP-146" value="앨범" style="ellipse;whiteSpace=wrap;html=1;" parent="WIyWlLk6GJQsqaUBKTNV-1" vertex="1">
          <mxGeometry x="611" y="160" width="70" height="40" as="geometry" />
        </mxCell>
        <mxCell id="5nUj0MCLF96ZCzCzL8qP-147" value="발매일" style="ellipse;whiteSpace=wrap;html=1;" parent="WIyWlLk6GJQsqaUBKTNV-1" vertex="1">
          <mxGeometry x="571" y="190" width="70" height="40" as="geometry" />
        </mxCell>
        <mxCell id="5nUj0MCLF96ZCzCzL8qP-148" value="장르" style="ellipse;whiteSpace=wrap;html=1;" parent="WIyWlLk6GJQsqaUBKTNV-1" vertex="1">
          <mxGeometry x="571" y="230" width="70" height="40" as="geometry" />
        </mxCell>
        <mxCell id="5nUj0MCLF96ZCzCzL8qP-149" value="작곡" style="ellipse;whiteSpace=wrap;html=1;" parent="WIyWlLk6GJQsqaUBKTNV-1" vertex="1">
          <mxGeometry x="571" y="270" width="70" height="40" as="geometry" />
        </mxCell>
        <mxCell id="5nUj0MCLF96ZCzCzL8qP-150" value="작사" style="ellipse;whiteSpace=wrap;html=1;" parent="WIyWlLk6GJQsqaUBKTNV-1" vertex="1">
          <mxGeometry x="581" y="310" width="70" height="40" as="geometry" />
        </mxCell>
        <mxCell id="5nUj0MCLF96ZCzCzL8qP-151" value="편곡" style="ellipse;whiteSpace=wrap;html=1;" parent="WIyWlLk6GJQsqaUBKTNV-1" vertex="1">
          <mxGeometry x="601" y="340" width="70" height="40" as="geometry" />
        </mxCell>
        <mxCell id="5nUj0MCLF96ZCzCzL8qP-152" value="가격" style="ellipse;whiteSpace=wrap;html=1;" parent="WIyWlLk6GJQsqaUBKTNV-1" vertex="1">
          <mxGeometry x="641" y="370" width="70" height="40" as="geometry" />
        </mxCell>
        <mxCell id="5nUj0MCLF96ZCzCzL8qP-153" value="할인율" style="ellipse;whiteSpace=wrap;html=1;" parent="WIyWlLk6GJQsqaUBKTNV-1" vertex="1">
          <mxGeometry x="681" y="390" width="70" height="40" as="geometry" />
        </mxCell>
        <mxCell id="5nUj0MCLF96ZCzCzL8qP-155" value="" style="endArrow=none;html=1;rounded=0;exitX=1;exitY=0.5;exitDx=0;exitDy=0;entryX=0.5;entryY=1;entryDx=0;entryDy=0;" parent="WIyWlLk6GJQsqaUBKTNV-1" source="5nUj0MCLF96ZCzCzL8qP-11" target="5nUj0MCLF96ZCzCzL8qP-165" edge="1">
          <mxGeometry width="50" height="50" relative="1" as="geometry">
            <mxPoint x="1301" y="410" as="sourcePoint" />
            <mxPoint x="1331" y="330" as="targetPoint" />
          </mxGeometry>
        </mxCell>
        <mxCell id="5nUj0MCLF96ZCzCzL8qP-156" value="" style="endArrow=none;html=1;rounded=0;exitX=1;exitY=0.5;exitDx=0;exitDy=0;entryX=0;entryY=1;entryDx=0;entryDy=0;" parent="WIyWlLk6GJQsqaUBKTNV-1" source="5nUj0MCLF96ZCzCzL8qP-11" target="5nUj0MCLF96ZCzCzL8qP-167" edge="1">
          <mxGeometry width="50" height="50" relative="1" as="geometry">
            <mxPoint x="1311" y="420" as="sourcePoint" />
            <mxPoint x="1361" y="330" as="targetPoint" />
          </mxGeometry>
        </mxCell>
        <mxCell id="5nUj0MCLF96ZCzCzL8qP-157" value="" style="endArrow=none;html=1;rounded=0;exitX=1;exitY=0.5;exitDx=0;exitDy=0;entryX=0;entryY=0.75;entryDx=0;entryDy=0;entryPerimeter=0;" parent="WIyWlLk6GJQsqaUBKTNV-1" source="5nUj0MCLF96ZCzCzL8qP-11" target="5nUj0MCLF96ZCzCzL8qP-168" edge="1">
          <mxGeometry width="50" height="50" relative="1" as="geometry">
            <mxPoint x="1321" y="430" as="sourcePoint" />
            <mxPoint x="1401" y="340" as="targetPoint" />
          </mxGeometry>
        </mxCell>
        <mxCell id="5nUj0MCLF96ZCzCzL8qP-158" value="" style="endArrow=none;html=1;rounded=0;exitX=1;exitY=0.5;exitDx=0;exitDy=0;entryX=0;entryY=0.5;entryDx=0;entryDy=0;" parent="WIyWlLk6GJQsqaUBKTNV-1" source="5nUj0MCLF96ZCzCzL8qP-11" target="5nUj0MCLF96ZCzCzL8qP-169" edge="1">
          <mxGeometry width="50" height="50" relative="1" as="geometry">
            <mxPoint x="1331" y="440" as="sourcePoint" />
            <mxPoint x="1421" y="360" as="targetPoint" />
          </mxGeometry>
        </mxCell>
        <mxCell id="5nUj0MCLF96ZCzCzL8qP-159" value="" style="endArrow=none;html=1;rounded=0;exitX=1;exitY=0.5;exitDx=0;exitDy=0;entryX=0;entryY=0.5;entryDx=0;entryDy=0;" parent="WIyWlLk6GJQsqaUBKTNV-1" source="5nUj0MCLF96ZCzCzL8qP-11" target="5nUj0MCLF96ZCzCzL8qP-170" edge="1">
          <mxGeometry width="50" height="50" relative="1" as="geometry">
            <mxPoint x="1341" y="450" as="sourcePoint" />
            <mxPoint x="1431" y="390" as="targetPoint" />
          </mxGeometry>
        </mxCell>
        <mxCell id="5nUj0MCLF96ZCzCzL8qP-160" value="" style="endArrow=none;html=1;rounded=0;exitX=1;exitY=0.5;exitDx=0;exitDy=0;entryX=0;entryY=0.5;entryDx=0;entryDy=0;" parent="WIyWlLk6GJQsqaUBKTNV-1" source="5nUj0MCLF96ZCzCzL8qP-11" target="5nUj0MCLF96ZCzCzL8qP-173" edge="1">
          <mxGeometry width="50" height="50" relative="1" as="geometry">
            <mxPoint x="1351" y="460" as="sourcePoint" />
            <mxPoint x="1421" y="420" as="targetPoint" />
          </mxGeometry>
        </mxCell>
        <mxCell id="5nUj0MCLF96ZCzCzL8qP-161" value="" style="endArrow=none;html=1;rounded=0;exitX=1;exitY=0.5;exitDx=0;exitDy=0;entryX=0;entryY=0.5;entryDx=0;entryDy=0;" parent="WIyWlLk6GJQsqaUBKTNV-1" source="5nUj0MCLF96ZCzCzL8qP-11" target="5nUj0MCLF96ZCzCzL8qP-174" edge="1">
          <mxGeometry width="50" height="50" relative="1" as="geometry">
            <mxPoint x="1361" y="470" as="sourcePoint" />
            <mxPoint x="1411" y="450" as="targetPoint" />
          </mxGeometry>
        </mxCell>
        <mxCell id="5nUj0MCLF96ZCzCzL8qP-162" value="" style="endArrow=none;html=1;rounded=0;exitX=1;exitY=0.5;exitDx=0;exitDy=0;entryX=0;entryY=0;entryDx=0;entryDy=0;" parent="WIyWlLk6GJQsqaUBKTNV-1" source="5nUj0MCLF96ZCzCzL8qP-11" target="5nUj0MCLF96ZCzCzL8qP-175" edge="1">
          <mxGeometry width="50" height="50" relative="1" as="geometry">
            <mxPoint x="1371" y="480" as="sourcePoint" />
            <mxPoint x="1411" y="480" as="targetPoint" />
          </mxGeometry>
        </mxCell>
        <mxCell id="5nUj0MCLF96ZCzCzL8qP-163" value="" style="endArrow=none;html=1;rounded=0;exitX=1;exitY=0.5;exitDx=0;exitDy=0;entryX=0.271;entryY=-0.025;entryDx=0;entryDy=0;entryPerimeter=0;" parent="WIyWlLk6GJQsqaUBKTNV-1" source="5nUj0MCLF96ZCzCzL8qP-11" target="5nUj0MCLF96ZCzCzL8qP-176" edge="1">
          <mxGeometry width="50" height="50" relative="1" as="geometry">
            <mxPoint x="1381" y="490" as="sourcePoint" />
            <mxPoint x="1381" y="490" as="targetPoint" />
          </mxGeometry>
        </mxCell>
        <mxCell id="5nUj0MCLF96ZCzCzL8qP-164" value="" style="endArrow=none;html=1;rounded=0;exitX=1;exitY=0.5;exitDx=0;exitDy=0;entryX=0.5;entryY=0;entryDx=0;entryDy=0;" parent="WIyWlLk6GJQsqaUBKTNV-1" source="5nUj0MCLF96ZCzCzL8qP-11" target="vL6Nq_Aky3gKRxV9vYMv-36" edge="1">
          <mxGeometry width="50" height="50" relative="1" as="geometry">
            <mxPoint x="1391" y="500" as="sourcePoint" />
            <mxPoint x="1379.98" y="508" as="targetPoint" />
          </mxGeometry>
        </mxCell>
        <mxCell id="5nUj0MCLF96ZCzCzL8qP-165" value="&lt;u&gt;책번호&lt;/u&gt;" style="ellipse;whiteSpace=wrap;html=1;" parent="WIyWlLk6GJQsqaUBKTNV-1" vertex="1">
          <mxGeometry x="1291" y="250" width="70" height="40" as="geometry" />
        </mxCell>
        <mxCell id="5nUj0MCLF96ZCzCzL8qP-167" value="책제목" style="ellipse;whiteSpace=wrap;html=1;" parent="WIyWlLk6GJQsqaUBKTNV-1" vertex="1">
          <mxGeometry x="1361" y="250" width="70" height="40" as="geometry" />
        </mxCell>
        <mxCell id="5nUj0MCLF96ZCzCzL8qP-168" value="분류" style="ellipse;whiteSpace=wrap;html=1;" parent="WIyWlLk6GJQsqaUBKTNV-1" vertex="1">
          <mxGeometry x="1421" y="270" width="70" height="40" as="geometry" />
        </mxCell>
        <mxCell id="5nUj0MCLF96ZCzCzL8qP-169" value="저자" style="ellipse;whiteSpace=wrap;html=1;" parent="WIyWlLk6GJQsqaUBKTNV-1" vertex="1">
          <mxGeometry x="1461" y="300" width="70" height="40" as="geometry" />
        </mxCell>
        <mxCell id="5nUj0MCLF96ZCzCzL8qP-170" value="출판" style="ellipse;whiteSpace=wrap;html=1;" parent="WIyWlLk6GJQsqaUBKTNV-1" vertex="1">
          <mxGeometry x="1481" y="340" width="70" height="40" as="geometry" />
        </mxCell>
        <mxCell id="5nUj0MCLF96ZCzCzL8qP-173" value="출간" style="ellipse;whiteSpace=wrap;html=1;" parent="WIyWlLk6GJQsqaUBKTNV-1" vertex="1">
          <mxGeometry x="1491" y="380" width="70" height="40" as="geometry" />
        </mxCell>
        <mxCell id="5nUj0MCLF96ZCzCzL8qP-174" value="평점" style="ellipse;whiteSpace=wrap;html=1;" parent="WIyWlLk6GJQsqaUBKTNV-1" vertex="1">
          <mxGeometry x="1481" y="420" width="70" height="40" as="geometry" />
        </mxCell>
        <mxCell id="5nUj0MCLF96ZCzCzL8qP-175" value="가격" style="ellipse;whiteSpace=wrap;html=1;" parent="WIyWlLk6GJQsqaUBKTNV-1" vertex="1">
          <mxGeometry x="1471" y="460" width="70" height="40" as="geometry" />
        </mxCell>
        <mxCell id="5nUj0MCLF96ZCzCzL8qP-176" value="할인율" style="ellipse;whiteSpace=wrap;html=1;" parent="WIyWlLk6GJQsqaUBKTNV-1" vertex="1">
          <mxGeometry x="1421" y="500" width="70" height="40" as="geometry" />
        </mxCell>
        <mxCell id="5nUj0MCLF96ZCzCzL8qP-178" value="" style="endArrow=none;html=1;rounded=0;exitX=0.5;exitY=1;exitDx=0;exitDy=0;" parent="WIyWlLk6GJQsqaUBKTNV-1" source="5nUj0MCLF96ZCzCzL8qP-8" target="5nUj0MCLF96ZCzCzL8qP-188" edge="1">
          <mxGeometry width="50" height="50" relative="1" as="geometry">
            <mxPoint x="1491" y="790" as="sourcePoint" />
            <mxPoint x="1351" y="890" as="targetPoint" />
          </mxGeometry>
        </mxCell>
        <mxCell id="5nUj0MCLF96ZCzCzL8qP-179" value="" style="endArrow=none;html=1;rounded=0;exitX=0.5;exitY=1;exitDx=0;exitDy=0;entryX=1;entryY=0;entryDx=0;entryDy=0;" parent="WIyWlLk6GJQsqaUBKTNV-1" source="5nUj0MCLF96ZCzCzL8qP-8" target="5nUj0MCLF96ZCzCzL8qP-189" edge="1">
          <mxGeometry width="50" height="50" relative="1" as="geometry">
            <mxPoint x="1476" y="845" as="sourcePoint" />
            <mxPoint x="1361" y="920" as="targetPoint" />
          </mxGeometry>
        </mxCell>
        <mxCell id="5nUj0MCLF96ZCzCzL8qP-180" value="" style="endArrow=none;html=1;rounded=0;exitX=0.5;exitY=1;exitDx=0;exitDy=0;entryX=0.714;entryY=0;entryDx=0;entryDy=0;entryPerimeter=0;" parent="WIyWlLk6GJQsqaUBKTNV-1" source="5nUj0MCLF96ZCzCzL8qP-8" target="5nUj0MCLF96ZCzCzL8qP-190" edge="1">
          <mxGeometry width="50" height="50" relative="1" as="geometry">
            <mxPoint x="1476" y="835" as="sourcePoint" />
            <mxPoint x="1381" y="940" as="targetPoint" />
          </mxGeometry>
        </mxCell>
        <mxCell id="5nUj0MCLF96ZCzCzL8qP-183" value="" style="endArrow=none;html=1;rounded=0;entryX=0.5;entryY=1;entryDx=0;entryDy=0;exitX=0.5;exitY=0;exitDx=0;exitDy=0;" parent="WIyWlLk6GJQsqaUBKTNV-1" source="5nUj0MCLF96ZCzCzL8qP-193" target="5nUj0MCLF96ZCzCzL8qP-8" edge="1">
          <mxGeometry width="50" height="50" relative="1" as="geometry">
            <mxPoint x="1481" y="970" as="sourcePoint" />
            <mxPoint x="1431" y="810" as="targetPoint" />
          </mxGeometry>
        </mxCell>
        <mxCell id="5nUj0MCLF96ZCzCzL8qP-184" value="" style="endArrow=none;html=1;rounded=0;entryX=0.5;entryY=1;entryDx=0;entryDy=0;" parent="WIyWlLk6GJQsqaUBKTNV-1" source="vL6Nq_Aky3gKRxV9vYMv-35" target="5nUj0MCLF96ZCzCzL8qP-8" edge="1">
          <mxGeometry width="50" height="50" relative="1" as="geometry">
            <mxPoint x="1554.13" y="889" as="sourcePoint" />
            <mxPoint x="1476" y="845" as="targetPoint" />
          </mxGeometry>
        </mxCell>
        <mxCell id="5nUj0MCLF96ZCzCzL8qP-188" value="&lt;u&gt;문의글번호&lt;/u&gt;" style="ellipse;whiteSpace=wrap;html=1;" parent="WIyWlLk6GJQsqaUBKTNV-1" vertex="1">
          <mxGeometry x="1331" y="902.5" width="70" height="40" as="geometry" />
        </mxCell>
        <mxCell id="5nUj0MCLF96ZCzCzL8qP-189" value="문의사항제목" style="ellipse;whiteSpace=wrap;html=1;" parent="WIyWlLk6GJQsqaUBKTNV-1" vertex="1">
          <mxGeometry x="1351" y="950" width="80" height="40" as="geometry" />
        </mxCell>
        <mxCell id="5nUj0MCLF96ZCzCzL8qP-190" value="문의내용" style="ellipse;whiteSpace=wrap;html=1;" parent="WIyWlLk6GJQsqaUBKTNV-1" vertex="1">
          <mxGeometry x="1441" y="960" width="70" height="40" as="geometry" />
        </mxCell>
        <mxCell id="5nUj0MCLF96ZCzCzL8qP-193" value="문의유형" style="ellipse;whiteSpace=wrap;html=1;" parent="WIyWlLk6GJQsqaUBKTNV-1" vertex="1">
          <mxGeometry x="1521" y="940" width="70" height="40" as="geometry" />
        </mxCell>
        <mxCell id="5nUj0MCLF96ZCzCzL8qP-199" value="" style="endArrow=none;html=1;rounded=0;exitX=0.5;exitY=0;exitDx=0;exitDy=0;entryX=1;entryY=1;entryDx=0;entryDy=0;" parent="WIyWlLk6GJQsqaUBKTNV-1" source="5nUj0MCLF96ZCzCzL8qP-10" target="5nUj0MCLF96ZCzCzL8qP-207" edge="1">
          <mxGeometry width="50" height="50" relative="1" as="geometry">
            <mxPoint x="2016" y="415" as="sourcePoint" />
            <mxPoint x="1856" y="400" as="targetPoint" />
          </mxGeometry>
        </mxCell>
        <mxCell id="5nUj0MCLF96ZCzCzL8qP-200" value="" style="endArrow=none;html=1;rounded=0;exitX=0.5;exitY=0;exitDx=0;exitDy=0;entryX=0;entryY=1;entryDx=0;entryDy=0;" parent="WIyWlLk6GJQsqaUBKTNV-1" source="5nUj0MCLF96ZCzCzL8qP-10" target="5nUj0MCLF96ZCzCzL8qP-212" edge="1">
          <mxGeometry width="50" height="50" relative="1" as="geometry">
            <mxPoint x="2001" y="430" as="sourcePoint" />
            <mxPoint x="2026" y="320" as="targetPoint" />
          </mxGeometry>
        </mxCell>
        <mxCell id="5nUj0MCLF96ZCzCzL8qP-201" value="" style="endArrow=none;html=1;rounded=0;exitX=0.5;exitY=0;exitDx=0;exitDy=0;entryX=0.591;entryY=1.05;entryDx=0;entryDy=0;entryPerimeter=0;" parent="WIyWlLk6GJQsqaUBKTNV-1" source="5nUj0MCLF96ZCzCzL8qP-10" target="5nUj0MCLF96ZCzCzL8qP-209" edge="1">
          <mxGeometry width="50" height="50" relative="1" as="geometry">
            <mxPoint x="2011" y="440" as="sourcePoint" />
            <mxPoint x="1876" y="370" as="targetPoint" />
          </mxGeometry>
        </mxCell>
        <mxCell id="5nUj0MCLF96ZCzCzL8qP-202" value="" style="endArrow=none;html=1;rounded=0;exitX=0.5;exitY=0;exitDx=0;exitDy=0;entryX=0;entryY=1;entryDx=0;entryDy=0;" parent="WIyWlLk6GJQsqaUBKTNV-1" source="5nUj0MCLF96ZCzCzL8qP-10" target="vL6Nq_Aky3gKRxV9vYMv-34" edge="1">
          <mxGeometry width="50" height="50" relative="1" as="geometry">
            <mxPoint x="2021" y="450" as="sourcePoint" />
            <mxPoint x="2084.1801948466054" y="354.14213562373084" as="targetPoint" />
          </mxGeometry>
        </mxCell>
        <mxCell id="5nUj0MCLF96ZCzCzL8qP-203" value="" style="endArrow=none;html=1;rounded=0;exitX=0.5;exitY=0;exitDx=0;exitDy=0;entryX=0.5;entryY=1;entryDx=0;entryDy=0;" parent="WIyWlLk6GJQsqaUBKTNV-1" source="5nUj0MCLF96ZCzCzL8qP-10" target="5nUj0MCLF96ZCzCzL8qP-208" edge="1">
          <mxGeometry width="50" height="50" relative="1" as="geometry">
            <mxPoint x="1996" y="420" as="sourcePoint" />
            <mxPoint x="1896" y="330" as="targetPoint" />
          </mxGeometry>
        </mxCell>
        <mxCell id="5nUj0MCLF96ZCzCzL8qP-207" value="&lt;u&gt;공지글번호&lt;/u&gt;" style="ellipse;whiteSpace=wrap;html=1;" parent="WIyWlLk6GJQsqaUBKTNV-1" vertex="1">
          <mxGeometry x="1810" y="350" width="70" height="40" as="geometry" />
        </mxCell>
        <mxCell id="5nUj0MCLF96ZCzCzL8qP-208" value="공지내용" style="ellipse;whiteSpace=wrap;html=1;" parent="WIyWlLk6GJQsqaUBKTNV-1" vertex="1">
          <mxGeometry x="1931" y="280" width="70" height="40" as="geometry" />
        </mxCell>
        <mxCell id="5nUj0MCLF96ZCzCzL8qP-209" value="공지사항 제목" style="ellipse;whiteSpace=wrap;html=1;" parent="WIyWlLk6GJQsqaUBKTNV-1" vertex="1">
          <mxGeometry x="1835.5" y="300" width="90" height="40" as="geometry" />
        </mxCell>
        <mxCell id="5nUj0MCLF96ZCzCzL8qP-212" value="공지유형" style="ellipse;whiteSpace=wrap;html=1;" parent="WIyWlLk6GJQsqaUBKTNV-1" vertex="1">
          <mxGeometry x="2011" y="280" width="70" height="40" as="geometry" />
        </mxCell>
        <mxCell id="5nUj0MCLF96ZCzCzL8qP-213" value="" style="endArrow=none;html=1;rounded=0;entryX=0;entryY=0.5;entryDx=0;entryDy=0;exitX=0.5;exitY=0;exitDx=0;exitDy=0;" parent="WIyWlLk6GJQsqaUBKTNV-1" source="vL6Nq_Aky3gKRxV9vYMv-40" target="5nUj0MCLF96ZCzCzL8qP-13" edge="1">
          <mxGeometry width="50" height="50" relative="1" as="geometry">
            <mxPoint x="702.46" y="1520" as="sourcePoint" />
            <mxPoint x="831" y="1100" as="targetPoint" />
          </mxGeometry>
        </mxCell>
        <mxCell id="5nUj0MCLF96ZCzCzL8qP-214" value="" style="endArrow=none;html=1;rounded=0;entryX=0;entryY=0.5;entryDx=0;entryDy=0;exitX=0.748;exitY=0.021;exitDx=0;exitDy=0;exitPerimeter=0;" parent="WIyWlLk6GJQsqaUBKTNV-1" source="5nUj0MCLF96ZCzCzL8qP-227" target="5nUj0MCLF96ZCzCzL8qP-13" edge="1">
          <mxGeometry width="50" height="50" relative="1" as="geometry">
            <mxPoint x="661" y="1500" as="sourcePoint" />
            <mxPoint x="761" y="1460" as="targetPoint" />
          </mxGeometry>
        </mxCell>
        <mxCell id="5nUj0MCLF96ZCzCzL8qP-216" value="" style="endArrow=none;html=1;rounded=0;entryX=0;entryY=0.5;entryDx=0;entryDy=0;exitX=1;exitY=0.5;exitDx=0;exitDy=0;" parent="WIyWlLk6GJQsqaUBKTNV-1" source="5nUj0MCLF96ZCzCzL8qP-225" target="5nUj0MCLF96ZCzCzL8qP-13" edge="1">
          <mxGeometry width="50" height="50" relative="1" as="geometry">
            <mxPoint x="621" y="1450" as="sourcePoint" />
            <mxPoint x="781" y="1480" as="targetPoint" />
          </mxGeometry>
        </mxCell>
        <mxCell id="5nUj0MCLF96ZCzCzL8qP-217" value="" style="endArrow=none;html=1;rounded=0;entryX=0;entryY=0.5;entryDx=0;entryDy=0;exitX=1;exitY=0.5;exitDx=0;exitDy=0;" parent="WIyWlLk6GJQsqaUBKTNV-1" source="5nUj0MCLF96ZCzCzL8qP-224" target="5nUj0MCLF96ZCzCzL8qP-13" edge="1">
          <mxGeometry width="50" height="50" relative="1" as="geometry">
            <mxPoint x="621" y="1410" as="sourcePoint" />
            <mxPoint x="791" y="1490" as="targetPoint" />
          </mxGeometry>
        </mxCell>
        <mxCell id="5nUj0MCLF96ZCzCzL8qP-218" value="" style="endArrow=none;html=1;rounded=0;entryX=0;entryY=0.5;entryDx=0;entryDy=0;exitX=1.017;exitY=0.726;exitDx=0;exitDy=0;exitPerimeter=0;" parent="WIyWlLk6GJQsqaUBKTNV-1" source="5nUj0MCLF96ZCzCzL8qP-223" target="5nUj0MCLF96ZCzCzL8qP-13" edge="1">
          <mxGeometry width="50" height="50" relative="1" as="geometry">
            <mxPoint x="641" y="1370" as="sourcePoint" />
            <mxPoint x="801" y="1500" as="targetPoint" />
          </mxGeometry>
        </mxCell>
        <mxCell id="5nUj0MCLF96ZCzCzL8qP-219" value="" style="endArrow=none;html=1;rounded=0;entryX=0;entryY=0.5;entryDx=0;entryDy=0;exitX=0.5;exitY=1;exitDx=0;exitDy=0;" parent="WIyWlLk6GJQsqaUBKTNV-1" source="5nUj0MCLF96ZCzCzL8qP-221" target="5nUj0MCLF96ZCzCzL8qP-13" edge="1">
          <mxGeometry width="50" height="50" relative="1" as="geometry">
            <mxPoint x="671" y="1340" as="sourcePoint" />
            <mxPoint x="811" y="1510" as="targetPoint" />
          </mxGeometry>
        </mxCell>
        <mxCell id="5nUj0MCLF96ZCzCzL8qP-220" value="" style="endArrow=none;html=1;rounded=0;entryX=0;entryY=0.5;entryDx=0;entryDy=0;exitX=0.3;exitY=0.975;exitDx=0;exitDy=0;exitPerimeter=0;" parent="WIyWlLk6GJQsqaUBKTNV-1" source="5nUj0MCLF96ZCzCzL8qP-222" target="5nUj0MCLF96ZCzCzL8qP-13" edge="1">
          <mxGeometry width="50" height="50" relative="1" as="geometry">
            <mxPoint x="721" y="1340" as="sourcePoint" />
            <mxPoint x="821" y="1520" as="targetPoint" />
          </mxGeometry>
        </mxCell>
        <mxCell id="5nUj0MCLF96ZCzCzL8qP-221" value="플레이리스트제목" style="ellipse;whiteSpace=wrap;html=1;" parent="WIyWlLk6GJQsqaUBKTNV-1" vertex="1">
          <mxGeometry x="571" y="1310" width="100" height="40" as="geometry" />
        </mxCell>
        <mxCell id="5nUj0MCLF96ZCzCzL8qP-222" value="&lt;u&gt;플레이리스트번호&lt;/u&gt;" style="ellipse;whiteSpace=wrap;html=1;" parent="WIyWlLk6GJQsqaUBKTNV-1" vertex="1">
          <mxGeometry x="671" y="1290" width="100" height="40" as="geometry" />
        </mxCell>
        <mxCell id="5nUj0MCLF96ZCzCzL8qP-223" value="설명" style="ellipse;whiteSpace=wrap;html=1;" parent="WIyWlLk6GJQsqaUBKTNV-1" vertex="1">
          <mxGeometry x="541" y="1360" width="70" height="40" as="geometry" />
        </mxCell>
        <mxCell id="5nUj0MCLF96ZCzCzL8qP-224" value="총 곡 수" style="ellipse;whiteSpace=wrap;html=1;" parent="WIyWlLk6GJQsqaUBKTNV-1" vertex="1">
          <mxGeometry x="531" y="1410" width="70" height="40" as="geometry" />
        </mxCell>
        <mxCell id="5nUj0MCLF96ZCzCzL8qP-225" value="총 플레이 시간" style="ellipse;whiteSpace=wrap;html=1;" parent="WIyWlLk6GJQsqaUBKTNV-1" vertex="1">
          <mxGeometry x="531" y="1460" width="90" height="40" as="geometry" />
        </mxCell>
        <mxCell id="5nUj0MCLF96ZCzCzL8qP-227" value="태그" style="ellipse;whiteSpace=wrap;html=1;" parent="WIyWlLk6GJQsqaUBKTNV-1" vertex="1">
          <mxGeometry x="586" y="1500" width="70" height="40" as="geometry" />
        </mxCell>
        <mxCell id="5nUj0MCLF96ZCzCzL8qP-229" style="edgeStyle=orthogonalEdgeStyle;rounded=0;orthogonalLoop=1;jettySize=auto;html=1;exitX=0.5;exitY=1;exitDx=0;exitDy=0;" parent="WIyWlLk6GJQsqaUBKTNV-1" edge="1">
          <mxGeometry relative="1" as="geometry">
            <mxPoint x="715" y="1560" as="sourcePoint" />
            <mxPoint x="715" y="1560" as="targetPoint" />
          </mxGeometry>
        </mxCell>
        <mxCell id="5nUj0MCLF96ZCzCzL8qP-230" value="" style="endArrow=none;html=1;rounded=0;exitX=1;exitY=0.5;exitDx=0;exitDy=0;entryX=0.5;entryY=1;entryDx=0;entryDy=0;" parent="WIyWlLk6GJQsqaUBKTNV-1" source="5nUj0MCLF96ZCzCzL8qP-14" target="5nUj0MCLF96ZCzCzL8qP-240" edge="1">
          <mxGeometry width="50" height="50" relative="1" as="geometry">
            <mxPoint x="1301" y="1255" as="sourcePoint" />
            <mxPoint x="1331" y="1175" as="targetPoint" />
          </mxGeometry>
        </mxCell>
        <mxCell id="5nUj0MCLF96ZCzCzL8qP-231" value="" style="endArrow=none;html=1;rounded=0;exitX=1;exitY=0.5;exitDx=0;exitDy=0;entryX=0;entryY=1;entryDx=0;entryDy=0;" parent="WIyWlLk6GJQsqaUBKTNV-1" source="5nUj0MCLF96ZCzCzL8qP-14" target="5nUj0MCLF96ZCzCzL8qP-241" edge="1">
          <mxGeometry width="50" height="50" relative="1" as="geometry">
            <mxPoint x="1301" y="1255" as="sourcePoint" />
            <mxPoint x="1361" y="1175" as="targetPoint" />
          </mxGeometry>
        </mxCell>
        <mxCell id="5nUj0MCLF96ZCzCzL8qP-232" value="" style="endArrow=none;html=1;rounded=0;exitX=1;exitY=0.5;exitDx=0;exitDy=0;entryX=0;entryY=0.75;entryDx=0;entryDy=0;entryPerimeter=0;" parent="WIyWlLk6GJQsqaUBKTNV-1" source="5nUj0MCLF96ZCzCzL8qP-14" target="5nUj0MCLF96ZCzCzL8qP-242" edge="1">
          <mxGeometry width="50" height="50" relative="1" as="geometry">
            <mxPoint x="1301" y="1255" as="sourcePoint" />
            <mxPoint x="1401" y="1185" as="targetPoint" />
          </mxGeometry>
        </mxCell>
        <mxCell id="5nUj0MCLF96ZCzCzL8qP-233" value="" style="endArrow=none;html=1;rounded=0;exitX=1;exitY=0.5;exitDx=0;exitDy=0;entryX=0;entryY=0.5;entryDx=0;entryDy=0;" parent="WIyWlLk6GJQsqaUBKTNV-1" source="5nUj0MCLF96ZCzCzL8qP-14" target="5nUj0MCLF96ZCzCzL8qP-243" edge="1">
          <mxGeometry width="50" height="50" relative="1" as="geometry">
            <mxPoint x="1301" y="1255" as="sourcePoint" />
            <mxPoint x="1421" y="1205" as="targetPoint" />
          </mxGeometry>
        </mxCell>
        <mxCell id="5nUj0MCLF96ZCzCzL8qP-234" value="" style="endArrow=none;html=1;rounded=0;exitX=1;exitY=0.5;exitDx=0;exitDy=0;entryX=0;entryY=0.5;entryDx=0;entryDy=0;" parent="WIyWlLk6GJQsqaUBKTNV-1" source="5nUj0MCLF96ZCzCzL8qP-14" target="5nUj0MCLF96ZCzCzL8qP-244" edge="1">
          <mxGeometry width="50" height="50" relative="1" as="geometry">
            <mxPoint x="1301" y="1255" as="sourcePoint" />
            <mxPoint x="1431" y="1235" as="targetPoint" />
          </mxGeometry>
        </mxCell>
        <mxCell id="5nUj0MCLF96ZCzCzL8qP-235" value="" style="endArrow=none;html=1;rounded=0;entryX=0;entryY=0.5;entryDx=0;entryDy=0;exitX=1;exitY=0.5;exitDx=0;exitDy=0;" parent="WIyWlLk6GJQsqaUBKTNV-1" source="5nUj0MCLF96ZCzCzL8qP-14" target="5nUj0MCLF96ZCzCzL8qP-245" edge="1">
          <mxGeometry width="50" height="50" relative="1" as="geometry">
            <mxPoint x="1241" y="1320" as="sourcePoint" />
            <mxPoint x="1421" y="1265" as="targetPoint" />
          </mxGeometry>
        </mxCell>
        <mxCell id="5nUj0MCLF96ZCzCzL8qP-236" value="" style="endArrow=none;html=1;rounded=0;exitX=1;exitY=0.5;exitDx=0;exitDy=0;entryX=0;entryY=0.5;entryDx=0;entryDy=0;" parent="WIyWlLk6GJQsqaUBKTNV-1" source="5nUj0MCLF96ZCzCzL8qP-14" target="5nUj0MCLF96ZCzCzL8qP-246" edge="1">
          <mxGeometry width="50" height="50" relative="1" as="geometry">
            <mxPoint x="1301" y="1255" as="sourcePoint" />
            <mxPoint x="1411" y="1295" as="targetPoint" />
          </mxGeometry>
        </mxCell>
        <mxCell id="5nUj0MCLF96ZCzCzL8qP-237" value="" style="endArrow=none;html=1;rounded=0;exitX=1;exitY=0.5;exitDx=0;exitDy=0;entryX=0;entryY=0;entryDx=0;entryDy=0;" parent="WIyWlLk6GJQsqaUBKTNV-1" source="5nUj0MCLF96ZCzCzL8qP-14" target="5nUj0MCLF96ZCzCzL8qP-247" edge="1">
          <mxGeometry width="50" height="50" relative="1" as="geometry">
            <mxPoint x="1301" y="1255" as="sourcePoint" />
            <mxPoint x="1411" y="1325" as="targetPoint" />
          </mxGeometry>
        </mxCell>
        <mxCell id="5nUj0MCLF96ZCzCzL8qP-238" value="" style="endArrow=none;html=1;rounded=0;entryX=0.271;entryY=-0.025;entryDx=0;entryDy=0;entryPerimeter=0;exitX=1;exitY=0.5;exitDx=0;exitDy=0;" parent="WIyWlLk6GJQsqaUBKTNV-1" source="5nUj0MCLF96ZCzCzL8qP-14" target="5nUj0MCLF96ZCzCzL8qP-248" edge="1">
          <mxGeometry width="50" height="50" relative="1" as="geometry">
            <mxPoint x="1251" y="1320" as="sourcePoint" />
            <mxPoint x="1381" y="1335" as="targetPoint" />
          </mxGeometry>
        </mxCell>
        <mxCell id="5nUj0MCLF96ZCzCzL8qP-239" value="" style="endArrow=none;html=1;rounded=0;entryX=0.5;entryY=0;entryDx=0;entryDy=0;exitX=1;exitY=0.5;exitDx=0;exitDy=0;" parent="WIyWlLk6GJQsqaUBKTNV-1" source="5nUj0MCLF96ZCzCzL8qP-14" target="vL6Nq_Aky3gKRxV9vYMv-38" edge="1">
          <mxGeometry width="50" height="50" relative="1" as="geometry">
            <mxPoint x="1241" y="1320" as="sourcePoint" />
            <mxPoint x="1239.98" y="1518" as="targetPoint" />
          </mxGeometry>
        </mxCell>
        <mxCell id="5nUj0MCLF96ZCzCzL8qP-240" value="&lt;u&gt;책번호&lt;/u&gt;" style="ellipse;whiteSpace=wrap;html=1;" parent="WIyWlLk6GJQsqaUBKTNV-1" vertex="1">
          <mxGeometry x="1281" y="1280" width="70" height="40" as="geometry" />
        </mxCell>
        <mxCell id="5nUj0MCLF96ZCzCzL8qP-241" value="책제목" style="ellipse;whiteSpace=wrap;html=1;" parent="WIyWlLk6GJQsqaUBKTNV-1" vertex="1">
          <mxGeometry x="1351" y="1290" width="70" height="40" as="geometry" />
        </mxCell>
        <mxCell id="5nUj0MCLF96ZCzCzL8qP-242" value="분류" style="ellipse;whiteSpace=wrap;html=1;" parent="WIyWlLk6GJQsqaUBKTNV-1" vertex="1">
          <mxGeometry x="1411" y="1320" width="70" height="40" as="geometry" />
        </mxCell>
        <mxCell id="5nUj0MCLF96ZCzCzL8qP-243" value="저자" style="ellipse;whiteSpace=wrap;html=1;" parent="WIyWlLk6GJQsqaUBKTNV-1" vertex="1">
          <mxGeometry x="1451" y="1360" width="70" height="40" as="geometry" />
        </mxCell>
        <mxCell id="5nUj0MCLF96ZCzCzL8qP-244" value="출판" style="ellipse;whiteSpace=wrap;html=1;" parent="WIyWlLk6GJQsqaUBKTNV-1" vertex="1">
          <mxGeometry x="1461" y="1410" width="70" height="40" as="geometry" />
        </mxCell>
        <mxCell id="5nUj0MCLF96ZCzCzL8qP-245" value="출간" style="ellipse;whiteSpace=wrap;html=1;" parent="WIyWlLk6GJQsqaUBKTNV-1" vertex="1">
          <mxGeometry x="1461" y="1460" width="70" height="40" as="geometry" />
        </mxCell>
        <mxCell id="5nUj0MCLF96ZCzCzL8qP-246" value="평점" style="ellipse;whiteSpace=wrap;html=1;" parent="WIyWlLk6GJQsqaUBKTNV-1" vertex="1">
          <mxGeometry x="1441" y="1510" width="70" height="40" as="geometry" />
        </mxCell>
        <mxCell id="5nUj0MCLF96ZCzCzL8qP-247" value="가격" style="ellipse;whiteSpace=wrap;html=1;" parent="WIyWlLk6GJQsqaUBKTNV-1" vertex="1">
          <mxGeometry x="1371" y="1530" width="70" height="40" as="geometry" />
        </mxCell>
        <mxCell id="5nUj0MCLF96ZCzCzL8qP-248" value="할인율" style="ellipse;whiteSpace=wrap;html=1;" parent="WIyWlLk6GJQsqaUBKTNV-1" vertex="1">
          <mxGeometry x="1291" y="1540" width="70" height="40" as="geometry" />
        </mxCell>
        <mxCell id="5nUj0MCLF96ZCzCzL8qP-251" value="" style="endArrow=none;html=1;rounded=0;entryX=0;entryY=0.5;entryDx=0;entryDy=0;" parent="WIyWlLk6GJQsqaUBKTNV-1" target="5nUj0MCLF96ZCzCzL8qP-36" edge="1">
          <mxGeometry width="50" height="50" relative="1" as="geometry">
            <mxPoint x="930" y="820" as="sourcePoint" />
            <mxPoint x="950" y="870" as="targetPoint" />
          </mxGeometry>
        </mxCell>
        <mxCell id="5nUj0MCLF96ZCzCzL8qP-252" value="" style="endArrow=none;html=1;rounded=0;entryX=0;entryY=0.5;entryDx=0;entryDy=0;" parent="WIyWlLk6GJQsqaUBKTNV-1" target="5nUj0MCLF96ZCzCzL8qP-36" edge="1">
          <mxGeometry width="50" height="50" relative="1" as="geometry">
            <mxPoint x="900" y="850" as="sourcePoint" />
            <mxPoint x="950" y="850" as="targetPoint" />
          </mxGeometry>
        </mxCell>
        <mxCell id="5nUj0MCLF96ZCzCzL8qP-253" value="" style="endArrow=none;html=1;rounded=0;entryX=0;entryY=0.5;entryDx=0;entryDy=0;" parent="WIyWlLk6GJQsqaUBKTNV-1" target="5nUj0MCLF96ZCzCzL8qP-36" edge="1">
          <mxGeometry width="50" height="50" relative="1" as="geometry">
            <mxPoint x="920" y="880" as="sourcePoint" />
            <mxPoint x="950" y="870" as="targetPoint" />
          </mxGeometry>
        </mxCell>
        <mxCell id="5nUj0MCLF96ZCzCzL8qP-254" value="구독일자" style="ellipse;whiteSpace=wrap;html=1;" parent="WIyWlLk6GJQsqaUBKTNV-1" vertex="1">
          <mxGeometry x="881" y="790" width="70" height="40" as="geometry" />
        </mxCell>
        <mxCell id="5nUj0MCLF96ZCzCzL8qP-255" value="ID(크리에이터)" style="ellipse;whiteSpace=wrap;html=1;" parent="WIyWlLk6GJQsqaUBKTNV-1" vertex="1">
          <mxGeometry x="820" y="827" width="90" height="40" as="geometry" />
        </mxCell>
        <mxCell id="5nUj0MCLF96ZCzCzL8qP-256" value="ID(구독자)" style="ellipse;whiteSpace=wrap;html=1;" parent="WIyWlLk6GJQsqaUBKTNV-1" vertex="1">
          <mxGeometry x="860" y="870" width="70" height="40" as="geometry" />
        </mxCell>
        <mxCell id="5nUj0MCLF96ZCzCzL8qP-257" value="" style="endArrow=none;html=1;rounded=0;entryX=0;entryY=0.5;entryDx=0;entryDy=0;" parent="WIyWlLk6GJQsqaUBKTNV-1" target="5nUj0MCLF96ZCzCzL8qP-40" edge="1">
          <mxGeometry width="50" height="50" relative="1" as="geometry">
            <mxPoint x="720" y="1120" as="sourcePoint" />
            <mxPoint x="850" y="960" as="targetPoint" />
          </mxGeometry>
        </mxCell>
        <mxCell id="5nUj0MCLF96ZCzCzL8qP-258" value="" style="endArrow=none;html=1;rounded=0;entryX=0;entryY=0.5;entryDx=0;entryDy=0;" parent="WIyWlLk6GJQsqaUBKTNV-1" target="5nUj0MCLF96ZCzCzL8qP-40" edge="1">
          <mxGeometry width="50" height="50" relative="1" as="geometry">
            <mxPoint x="710" y="1165" as="sourcePoint" />
            <mxPoint x="800" y="1175" as="targetPoint" />
          </mxGeometry>
        </mxCell>
        <mxCell id="5nUj0MCLF96ZCzCzL8qP-259" value="ID(구독자)" style="ellipse;whiteSpace=wrap;html=1;" parent="WIyWlLk6GJQsqaUBKTNV-1" vertex="1">
          <mxGeometry x="660" y="1090" width="70" height="40" as="geometry" />
        </mxCell>
        <mxCell id="5nUj0MCLF96ZCzCzL8qP-260" value="작성일자" style="ellipse;whiteSpace=wrap;html=1;" parent="WIyWlLk6GJQsqaUBKTNV-1" vertex="1">
          <mxGeometry x="641" y="1145" width="70" height="40" as="geometry" />
        </mxCell>
        <mxCell id="5nUj0MCLF96ZCzCzL8qP-261" value="" style="endArrow=none;html=1;rounded=0;exitX=1;exitY=0.5;exitDx=0;exitDy=0;" parent="WIyWlLk6GJQsqaUBKTNV-1" source="5nUj0MCLF96ZCzCzL8qP-41" edge="1">
          <mxGeometry width="50" height="50" relative="1" as="geometry">
            <mxPoint x="800" y="1250" as="sourcePoint" />
            <mxPoint x="1190" y="1160" as="targetPoint" />
          </mxGeometry>
        </mxCell>
        <mxCell id="5nUj0MCLF96ZCzCzL8qP-262" value="" style="endArrow=none;html=1;rounded=0;exitX=1;exitY=0.5;exitDx=0;exitDy=0;" parent="WIyWlLk6GJQsqaUBKTNV-1" source="5nUj0MCLF96ZCzCzL8qP-41" edge="1">
          <mxGeometry width="50" height="50" relative="1" as="geometry">
            <mxPoint x="1151" y="1215" as="sourcePoint" />
            <mxPoint x="1220" y="1190" as="targetPoint" />
          </mxGeometry>
        </mxCell>
        <mxCell id="5nUj0MCLF96ZCzCzL8qP-263" value="" style="endArrow=none;html=1;rounded=0;exitX=1;exitY=0.5;exitDx=0;exitDy=0;entryX=0;entryY=0.5;entryDx=0;entryDy=0;" parent="WIyWlLk6GJQsqaUBKTNV-1" source="5nUj0MCLF96ZCzCzL8qP-41" target="5nUj0MCLF96ZCzCzL8qP-266" edge="1">
          <mxGeometry width="50" height="50" relative="1" as="geometry">
            <mxPoint x="1151" y="1215" as="sourcePoint" />
            <mxPoint x="1190" y="1220" as="targetPoint" />
          </mxGeometry>
        </mxCell>
        <mxCell id="5nUj0MCLF96ZCzCzL8qP-264" value="ID(구독자)" style="ellipse;whiteSpace=wrap;html=1;" parent="WIyWlLk6GJQsqaUBKTNV-1" vertex="1">
          <mxGeometry x="1161" y="1130" width="70" height="40" as="geometry" />
        </mxCell>
        <mxCell id="5nUj0MCLF96ZCzCzL8qP-265" value="구매일자" style="ellipse;whiteSpace=wrap;html=1;" parent="WIyWlLk6GJQsqaUBKTNV-1" vertex="1">
          <mxGeometry x="1211" y="1160" width="70" height="40" as="geometry" />
        </mxCell>
        <mxCell id="5nUj0MCLF96ZCzCzL8qP-266" value="결제방식" style="ellipse;whiteSpace=wrap;html=1;" parent="WIyWlLk6GJQsqaUBKTNV-1" vertex="1">
          <mxGeometry x="1231" y="1200" width="70" height="40" as="geometry" />
        </mxCell>
        <mxCell id="5nUj0MCLF96ZCzCzL8qP-267" value="구매처" style="ellipse;whiteSpace=wrap;html=1;" parent="WIyWlLk6GJQsqaUBKTNV-1" vertex="1">
          <mxGeometry x="1171" y="1230" width="70" height="40" as="geometry" />
        </mxCell>
        <mxCell id="5nUj0MCLF96ZCzCzL8qP-269" value="" style="endArrow=none;html=1;rounded=0;exitX=1;exitY=0.5;exitDx=0;exitDy=0;entryX=0;entryY=0;entryDx=0;entryDy=0;" parent="WIyWlLk6GJQsqaUBKTNV-1" source="5nUj0MCLF96ZCzCzL8qP-41" target="5nUj0MCLF96ZCzCzL8qP-267" edge="1">
          <mxGeometry width="50" height="50" relative="1" as="geometry">
            <mxPoint x="1151" y="1215" as="sourcePoint" />
            <mxPoint x="1241" y="1230" as="targetPoint" />
          </mxGeometry>
        </mxCell>
        <mxCell id="5nUj0MCLF96ZCzCzL8qP-271" value="ID(구독자or크리에이터)" style="ellipse;whiteSpace=wrap;html=1;" parent="WIyWlLk6GJQsqaUBKTNV-1" vertex="1">
          <mxGeometry x="1272" y="735" width="149" height="40" as="geometry" />
        </mxCell>
        <mxCell id="5nUj0MCLF96ZCzCzL8qP-272" value="작성일자" style="ellipse;whiteSpace=wrap;html=1;" parent="WIyWlLk6GJQsqaUBKTNV-1" vertex="1">
          <mxGeometry x="1351" y="785" width="70" height="40" as="geometry" />
        </mxCell>
        <mxCell id="5nUj0MCLF96ZCzCzL8qP-273" value="" style="endArrow=none;html=1;rounded=0;exitX=0.5;exitY=0;exitDx=0;exitDy=0;entryX=0.286;entryY=1.002;entryDx=0;entryDy=0;entryPerimeter=0;" parent="WIyWlLk6GJQsqaUBKTNV-1" source="5nUj0MCLF96ZCzCzL8qP-37" target="5nUj0MCLF96ZCzCzL8qP-271" edge="1">
          <mxGeometry width="50" height="50" relative="1" as="geometry">
            <mxPoint x="1431" y="760" as="sourcePoint" />
            <mxPoint x="1481" y="710" as="targetPoint" />
          </mxGeometry>
        </mxCell>
        <mxCell id="5nUj0MCLF96ZCzCzL8qP-274" value="" style="endArrow=none;html=1;rounded=0;exitX=0.5;exitY=0;exitDx=0;exitDy=0;entryX=0;entryY=0.5;entryDx=0;entryDy=0;" parent="WIyWlLk6GJQsqaUBKTNV-1" source="5nUj0MCLF96ZCzCzL8qP-37" target="5nUj0MCLF96ZCzCzL8qP-272" edge="1">
          <mxGeometry width="50" height="50" relative="1" as="geometry">
            <mxPoint x="1291" y="842.5" as="sourcePoint" />
            <mxPoint x="1321.02" y="802.5799999999999" as="targetPoint" />
          </mxGeometry>
        </mxCell>
        <mxCell id="5nUj0MCLF96ZCzCzL8qP-275" value="ID(관리자)" style="ellipse;whiteSpace=wrap;html=1;" parent="WIyWlLk6GJQsqaUBKTNV-1" vertex="1">
          <mxGeometry x="2145" y="600" width="70" height="40" as="geometry" />
        </mxCell>
        <mxCell id="5nUj0MCLF96ZCzCzL8qP-276" value="작성일자" style="ellipse;whiteSpace=wrap;html=1;" parent="WIyWlLk6GJQsqaUBKTNV-1" vertex="1">
          <mxGeometry x="2145" y="655" width="70" height="40" as="geometry" />
        </mxCell>
        <mxCell id="5nUj0MCLF96ZCzCzL8qP-277" value="" style="endArrow=none;html=1;rounded=0;exitX=1;exitY=0.5;exitDx=0;exitDy=0;entryX=0;entryY=0.5;entryDx=0;entryDy=0;" parent="WIyWlLk6GJQsqaUBKTNV-1" source="5nUj0MCLF96ZCzCzL8qP-42" target="5nUj0MCLF96ZCzCzL8qP-275" edge="1">
          <mxGeometry width="50" height="50" relative="1" as="geometry">
            <mxPoint x="2081" y="640" as="sourcePoint" />
            <mxPoint x="2131" y="590" as="targetPoint" />
          </mxGeometry>
        </mxCell>
        <mxCell id="5nUj0MCLF96ZCzCzL8qP-278" value="" style="endArrow=none;html=1;rounded=0;exitX=1;exitY=0.5;exitDx=0;exitDy=0;entryX=0;entryY=0.5;entryDx=0;entryDy=0;" parent="WIyWlLk6GJQsqaUBKTNV-1" source="5nUj0MCLF96ZCzCzL8qP-42" target="5nUj0MCLF96ZCzCzL8qP-276" edge="1">
          <mxGeometry width="50" height="50" relative="1" as="geometry">
            <mxPoint x="2080" y="657.5" as="sourcePoint" />
            <mxPoint x="2155" y="630" as="targetPoint" />
          </mxGeometry>
        </mxCell>
        <mxCell id="5nUj0MCLF96ZCzCzL8qP-280" value="ID(크리에이터)" style="ellipse;whiteSpace=wrap;html=1;" parent="WIyWlLk6GJQsqaUBKTNV-1" vertex="1">
          <mxGeometry x="830" y="480" width="90" height="40" as="geometry" />
        </mxCell>
        <mxCell id="5nUj0MCLF96ZCzCzL8qP-281" value="추천점수" style="ellipse;whiteSpace=wrap;html=1;" parent="WIyWlLk6GJQsqaUBKTNV-1" vertex="1">
          <mxGeometry x="797.5" y="530" width="90" height="40" as="geometry" />
        </mxCell>
        <mxCell id="5nUj0MCLF96ZCzCzL8qP-282" value="추천날짜" style="ellipse;whiteSpace=wrap;html=1;" parent="WIyWlLk6GJQsqaUBKTNV-1" vertex="1">
          <mxGeometry x="820" y="580" width="90" height="40" as="geometry" />
        </mxCell>
        <mxCell id="5nUj0MCLF96ZCzCzL8qP-283" value="" style="endArrow=none;html=1;rounded=0;exitX=0;exitY=0.5;exitDx=0;exitDy=0;entryX=1;entryY=1;entryDx=0;entryDy=0;" parent="WIyWlLk6GJQsqaUBKTNV-1" source="5nUj0MCLF96ZCzCzL8qP-39" target="5nUj0MCLF96ZCzCzL8qP-280" edge="1">
          <mxGeometry width="50" height="50" relative="1" as="geometry">
            <mxPoint x="1050" y="660" as="sourcePoint" />
            <mxPoint x="1100" y="610" as="targetPoint" />
          </mxGeometry>
        </mxCell>
        <mxCell id="5nUj0MCLF96ZCzCzL8qP-284" value="" style="endArrow=none;html=1;rounded=0;exitX=0;exitY=0.5;exitDx=0;exitDy=0;entryX=1;entryY=0.5;entryDx=0;entryDy=0;" parent="WIyWlLk6GJQsqaUBKTNV-1" source="5nUj0MCLF96ZCzCzL8qP-39" target="5nUj0MCLF96ZCzCzL8qP-281" edge="1">
          <mxGeometry width="50" height="50" relative="1" as="geometry">
            <mxPoint x="961" y="562.5" as="sourcePoint" />
            <mxPoint x="916.7153074572411" y="524.1884270203445" as="targetPoint" />
          </mxGeometry>
        </mxCell>
        <mxCell id="5nUj0MCLF96ZCzCzL8qP-285" value="" style="endArrow=none;html=1;rounded=0;exitX=0;exitY=0.5;exitDx=0;exitDy=0;entryX=1;entryY=0;entryDx=0;entryDy=0;" parent="WIyWlLk6GJQsqaUBKTNV-1" source="5nUj0MCLF96ZCzCzL8qP-39" target="5nUj0MCLF96ZCzCzL8qP-282" edge="1">
          <mxGeometry width="50" height="50" relative="1" as="geometry">
            <mxPoint x="961" y="562.5" as="sourcePoint" />
            <mxPoint x="897.5" y="560" as="targetPoint" />
          </mxGeometry>
        </mxCell>
        <mxCell id="vL6Nq_Aky3gKRxV9vYMv-0" value="1" style="text;html=1;align=center;verticalAlign=middle;resizable=0;points=[];autosize=1;strokeColor=none;fillColor=none;" vertex="1" parent="WIyWlLk6GJQsqaUBKTNV-1">
          <mxGeometry x="531" y="830" width="20" height="20" as="geometry" />
        </mxCell>
        <mxCell id="vL6Nq_Aky3gKRxV9vYMv-1" value="1" style="text;html=1;align=center;verticalAlign=middle;resizable=0;points=[];autosize=1;strokeColor=none;fillColor=none;" vertex="1" parent="WIyWlLk6GJQsqaUBKTNV-1">
          <mxGeometry x="771" y="790" width="20" height="20" as="geometry" />
        </mxCell>
        <mxCell id="vL6Nq_Aky3gKRxV9vYMv-2" value="1" style="text;html=1;align=center;verticalAlign=middle;resizable=0;points=[];autosize=1;strokeColor=none;fillColor=none;" vertex="1" parent="WIyWlLk6GJQsqaUBKTNV-1">
          <mxGeometry x="780" y="875" width="20" height="20" as="geometry" />
        </mxCell>
        <mxCell id="vL6Nq_Aky3gKRxV9vYMv-3" value="n" style="text;html=1;align=center;verticalAlign=middle;resizable=0;points=[];autosize=1;strokeColor=none;fillColor=none;" vertex="1" parent="WIyWlLk6GJQsqaUBKTNV-1">
          <mxGeometry x="1010" y="785" width="20" height="20" as="geometry" />
        </mxCell>
        <mxCell id="vL6Nq_Aky3gKRxV9vYMv-4" value="m" style="text;html=1;align=center;verticalAlign=middle;resizable=0;points=[];autosize=1;strokeColor=none;fillColor=none;" vertex="1" parent="WIyWlLk6GJQsqaUBKTNV-1">
          <mxGeometry x="1005" y="897.5" width="30" height="20" as="geometry" />
        </mxCell>
        <mxCell id="vL6Nq_Aky3gKRxV9vYMv-5" value="1" style="text;html=1;align=center;verticalAlign=middle;resizable=0;points=[];autosize=1;strokeColor=none;fillColor=none;" vertex="1" parent="WIyWlLk6GJQsqaUBKTNV-1">
          <mxGeometry x="1101" y="770" width="20" height="20" as="geometry" />
        </mxCell>
        <mxCell id="vL6Nq_Aky3gKRxV9vYMv-6" value="1" style="text;html=1;align=center;verticalAlign=middle;resizable=0;points=[];autosize=1;strokeColor=none;fillColor=none;" vertex="1" parent="WIyWlLk6GJQsqaUBKTNV-1">
          <mxGeometry x="1121" y="880" width="20" height="20" as="geometry" />
        </mxCell>
        <mxCell id="vL6Nq_Aky3gKRxV9vYMv-7" value="n" style="text;html=1;align=center;verticalAlign=middle;resizable=0;points=[];autosize=1;strokeColor=none;fillColor=none;" vertex="1" parent="WIyWlLk6GJQsqaUBKTNV-1">
          <mxGeometry x="1005" y="620" width="20" height="20" as="geometry" />
        </mxCell>
        <mxCell id="vL6Nq_Aky3gKRxV9vYMv-8" value="m" style="text;html=1;align=center;verticalAlign=middle;resizable=0;points=[];autosize=1;strokeColor=none;fillColor=none;" vertex="1" parent="WIyWlLk6GJQsqaUBKTNV-1">
          <mxGeometry x="970" y="420" width="30" height="20" as="geometry" />
        </mxCell>
        <mxCell id="vL6Nq_Aky3gKRxV9vYMv-9" value="m" style="text;html=1;align=center;verticalAlign=middle;resizable=0;points=[];autosize=1;strokeColor=none;fillColor=none;" vertex="1" parent="WIyWlLk6GJQsqaUBKTNV-1">
          <mxGeometry x="1111" y="440" width="30" height="20" as="geometry" />
        </mxCell>
        <mxCell id="vL6Nq_Aky3gKRxV9vYMv-10" value="n" style="text;html=1;align=center;verticalAlign=middle;resizable=0;points=[];autosize=1;strokeColor=none;fillColor=none;" vertex="1" parent="WIyWlLk6GJQsqaUBKTNV-1">
          <mxGeometry x="1361" y="832.5" width="20" height="20" as="geometry" />
        </mxCell>
        <mxCell id="vL6Nq_Aky3gKRxV9vYMv-11" value="n" style="text;html=1;align=center;verticalAlign=middle;resizable=0;points=[];autosize=1;strokeColor=none;fillColor=none;" vertex="1" parent="WIyWlLk6GJQsqaUBKTNV-1">
          <mxGeometry x="1601" y="835" width="20" height="20" as="geometry" />
        </mxCell>
        <mxCell id="vL6Nq_Aky3gKRxV9vYMv-12" value="1" style="text;html=1;align=center;verticalAlign=middle;resizable=0;points=[];autosize=1;strokeColor=none;fillColor=none;" vertex="1" parent="WIyWlLk6GJQsqaUBKTNV-1">
          <mxGeometry x="1895.5" y="835" width="20" height="20" as="geometry" />
        </mxCell>
        <mxCell id="vL6Nq_Aky3gKRxV9vYMv-13" value="1" style="text;html=1;align=center;verticalAlign=middle;resizable=0;points=[];autosize=1;strokeColor=none;fillColor=none;" vertex="1" parent="WIyWlLk6GJQsqaUBKTNV-1">
          <mxGeometry x="2036" y="750" width="20" height="20" as="geometry" />
        </mxCell>
        <mxCell id="vL6Nq_Aky3gKRxV9vYMv-14" value="n" style="text;html=1;align=center;verticalAlign=middle;resizable=0;points=[];autosize=1;strokeColor=none;fillColor=none;" vertex="1" parent="WIyWlLk6GJQsqaUBKTNV-1">
          <mxGeometry x="2010" y="530" width="20" height="20" as="geometry" />
        </mxCell>
        <mxCell id="vL6Nq_Aky3gKRxV9vYMv-15" value="1" style="text;html=1;align=center;verticalAlign=middle;resizable=0;points=[];autosize=1;strokeColor=none;fillColor=none;" vertex="1" parent="WIyWlLk6GJQsqaUBKTNV-1">
          <mxGeometry x="906" y="1050" width="20" height="20" as="geometry" />
        </mxCell>
        <mxCell id="vL6Nq_Aky3gKRxV9vYMv-16" value="n" style="text;html=1;align=center;verticalAlign=middle;resizable=0;points=[];autosize=1;strokeColor=none;fillColor=none;" vertex="1" parent="WIyWlLk6GJQsqaUBKTNV-1">
          <mxGeometry x="1046" y="1070" width="20" height="20" as="geometry" />
        </mxCell>
        <mxCell id="vL6Nq_Aky3gKRxV9vYMv-17" value="n" style="text;html=1;align=center;verticalAlign=middle;resizable=0;points=[];autosize=1;strokeColor=none;fillColor=none;" vertex="1" parent="WIyWlLk6GJQsqaUBKTNV-1">
          <mxGeometry x="800" y="1250" width="20" height="20" as="geometry" />
        </mxCell>
        <mxCell id="vL6Nq_Aky3gKRxV9vYMv-18" value="m" style="text;html=1;align=center;verticalAlign=middle;resizable=0;points=[];autosize=1;strokeColor=none;fillColor=none;" vertex="1" parent="WIyWlLk6GJQsqaUBKTNV-1">
          <mxGeometry x="1101" y="1280" width="30" height="20" as="geometry" />
        </mxCell>
        <mxCell id="vL6Nq_Aky3gKRxV9vYMv-30" value="나이" style="ellipse;whiteSpace=wrap;html=1;dashed=1;" vertex="1" parent="WIyWlLk6GJQsqaUBKTNV-1">
          <mxGeometry x="502" y="737.5" width="69" height="45" as="geometry" />
        </mxCell>
        <mxCell id="vL6Nq_Aky3gKRxV9vYMv-31" value="나이" style="ellipse;whiteSpace=wrap;html=1;dashed=1;" vertex="1" parent="WIyWlLk6GJQsqaUBKTNV-1">
          <mxGeometry x="1191" y="720" width="69" height="45" as="geometry" />
        </mxCell>
        <mxCell id="vL6Nq_Aky3gKRxV9vYMv-32" value="나이" style="ellipse;whiteSpace=wrap;html=1;dashed=1;" vertex="1" parent="WIyWlLk6GJQsqaUBKTNV-1">
          <mxGeometry x="1102" y="1050" width="69" height="45" as="geometry" />
        </mxCell>
        <mxCell id="vL6Nq_Aky3gKRxV9vYMv-33" value="나이" style="ellipse;whiteSpace=wrap;html=1;dashed=1;" vertex="1" parent="WIyWlLk6GJQsqaUBKTNV-1">
          <mxGeometry x="2200" y="917.5" width="69" height="45" as="geometry" />
        </mxCell>
        <mxCell id="vL6Nq_Aky3gKRxV9vYMv-34" value="연관된 공지사항" style="ellipse;whiteSpace=wrap;html=1;dashed=1;" vertex="1" parent="WIyWlLk6GJQsqaUBKTNV-1">
          <mxGeometry x="2081" y="310" width="99" height="45" as="geometry" />
        </mxCell>
        <mxCell id="vL6Nq_Aky3gKRxV9vYMv-35" value="연관된 문의사항" style="ellipse;whiteSpace=wrap;html=1;dashed=1;" vertex="1" parent="WIyWlLk6GJQsqaUBKTNV-1">
          <mxGeometry x="1551" y="885" width="99" height="45" as="geometry" />
        </mxCell>
        <mxCell id="vL6Nq_Aky3gKRxV9vYMv-36" value="판매가" style="ellipse;whiteSpace=wrap;html=1;dashed=1;" vertex="1" parent="WIyWlLk6GJQsqaUBKTNV-1">
          <mxGeometry x="1351" y="517.5" width="69" height="45" as="geometry" />
        </mxCell>
        <mxCell id="vL6Nq_Aky3gKRxV9vYMv-37" value="판매가" style="ellipse;whiteSpace=wrap;html=1;dashed=1;" vertex="1" parent="WIyWlLk6GJQsqaUBKTNV-1">
          <mxGeometry x="746.5" y="407.5" width="69" height="45" as="geometry" />
        </mxCell>
        <mxCell id="vL6Nq_Aky3gKRxV9vYMv-38" value="판매가" style="ellipse;whiteSpace=wrap;html=1;dashed=1;" vertex="1" parent="WIyWlLk6GJQsqaUBKTNV-1">
          <mxGeometry x="1212" y="1530" width="69" height="45" as="geometry" />
        </mxCell>
        <mxCell id="vL6Nq_Aky3gKRxV9vYMv-40" value="연관 플레이리스트" style="ellipse;whiteSpace=wrap;html=1;dashed=1;" vertex="1" parent="WIyWlLk6GJQsqaUBKTNV-1">
          <mxGeometry x="651" y="1525" width="109.5" height="45" as="geometry" />
        </mxCell>
        <mxCell id="vL6Nq_Aky3gKRxV9vYMv-41" value="" style="endArrow=none;html=1;rounded=0;exitX=0.645;exitY=0.045;exitDx=0;exitDy=0;exitPerimeter=0;entryX=0.5;entryY=1;entryDx=0;entryDy=0;" edge="1" parent="WIyWlLk6GJQsqaUBKTNV-1" source="5nUj0MCLF96ZCzCzL8qP-82" target="vL6Nq_Aky3gKRxV9vYMv-44">
          <mxGeometry width="50" height="50" relative="1" as="geometry">
            <mxPoint x="500" y="660" as="sourcePoint" />
            <mxPoint x="486" y="640" as="targetPoint" />
          </mxGeometry>
        </mxCell>
        <mxCell id="vL6Nq_Aky3gKRxV9vYMv-42" value="" style="endArrow=none;html=1;rounded=0;exitX=0.645;exitY=0.023;exitDx=0;exitDy=0;exitPerimeter=0;entryX=0.311;entryY=0.951;entryDx=0;entryDy=0;entryPerimeter=0;" edge="1" parent="WIyWlLk6GJQsqaUBKTNV-1" source="5nUj0MCLF96ZCzCzL8qP-82" target="vL6Nq_Aky3gKRxV9vYMv-46">
          <mxGeometry width="50" height="50" relative="1" as="geometry">
            <mxPoint x="506.14999999999986" y="716.8" as="sourcePoint" />
            <mxPoint x="520" y="650" as="targetPoint" />
          </mxGeometry>
        </mxCell>
        <mxCell id="vL6Nq_Aky3gKRxV9vYMv-43" value="" style="endArrow=none;html=1;rounded=0;exitX=0.607;exitY=0.023;exitDx=0;exitDy=0;exitPerimeter=0;entryX=0;entryY=0.5;entryDx=0;entryDy=0;" edge="1" parent="WIyWlLk6GJQsqaUBKTNV-1" source="5nUj0MCLF96ZCzCzL8qP-82" target="vL6Nq_Aky3gKRxV9vYMv-47">
          <mxGeometry width="50" height="50" relative="1" as="geometry">
            <mxPoint x="516.1499999999999" y="726.8" as="sourcePoint" />
            <mxPoint x="550" y="670" as="targetPoint" />
          </mxGeometry>
        </mxCell>
        <mxCell id="vL6Nq_Aky3gKRxV9vYMv-44" value="년" style="ellipse;whiteSpace=wrap;html=1;" vertex="1" parent="WIyWlLk6GJQsqaUBKTNV-1">
          <mxGeometry x="461" y="610" width="50" height="30" as="geometry" />
        </mxCell>
        <mxCell id="vL6Nq_Aky3gKRxV9vYMv-46" value="월" style="ellipse;whiteSpace=wrap;html=1;" vertex="1" parent="WIyWlLk6GJQsqaUBKTNV-1">
          <mxGeometry x="511" y="620" width="50" height="30" as="geometry" />
        </mxCell>
        <mxCell id="vL6Nq_Aky3gKRxV9vYMv-47" value="일" style="ellipse;whiteSpace=wrap;html=1;" vertex="1" parent="WIyWlLk6GJQsqaUBKTNV-1">
          <mxGeometry x="551" y="650" width="50" height="30" as="geometry" />
        </mxCell>
        <mxCell id="vL6Nq_Aky3gKRxV9vYMv-48" value="년" style="ellipse;whiteSpace=wrap;html=1;" vertex="1" parent="WIyWlLk6GJQsqaUBKTNV-1">
          <mxGeometry x="1291" y="632.5" width="50" height="30" as="geometry" />
        </mxCell>
        <mxCell id="vL6Nq_Aky3gKRxV9vYMv-49" value="월" style="ellipse;whiteSpace=wrap;html=1;" vertex="1" parent="WIyWlLk6GJQsqaUBKTNV-1">
          <mxGeometry x="1321" y="655" width="50" height="30" as="geometry" />
        </mxCell>
        <mxCell id="vL6Nq_Aky3gKRxV9vYMv-50" value="일" style="ellipse;whiteSpace=wrap;html=1;" vertex="1" parent="WIyWlLk6GJQsqaUBKTNV-1">
          <mxGeometry x="1331" y="680" width="50" height="30" as="geometry" />
        </mxCell>
        <mxCell id="vL6Nq_Aky3gKRxV9vYMv-51" value="" style="endArrow=none;html=1;rounded=0;exitX=1;exitY=0.5;exitDx=0;exitDy=0;entryX=0.329;entryY=1.027;entryDx=0;entryDy=0;entryPerimeter=0;" edge="1" parent="WIyWlLk6GJQsqaUBKTNV-1" source="5nUj0MCLF96ZCzCzL8qP-98" target="vL6Nq_Aky3gKRxV9vYMv-48">
          <mxGeometry width="50" height="50" relative="1" as="geometry">
            <mxPoint x="1290" y="700" as="sourcePoint" />
            <mxPoint x="1306" y="660" as="targetPoint" />
          </mxGeometry>
        </mxCell>
        <mxCell id="vL6Nq_Aky3gKRxV9vYMv-52" value="" style="endArrow=none;html=1;rounded=0;exitX=1;exitY=0.5;exitDx=0;exitDy=0;entryX=0;entryY=1;entryDx=0;entryDy=0;" edge="1" parent="WIyWlLk6GJQsqaUBKTNV-1" source="5nUj0MCLF96ZCzCzL8qP-98" target="vL6Nq_Aky3gKRxV9vYMv-49">
          <mxGeometry width="50" height="50" relative="1" as="geometry">
            <mxPoint x="1302.6799999999998" y="701.1199999999999" as="sourcePoint" />
            <mxPoint x="1310.5000000000005" y="674.1800000000001" as="targetPoint" />
          </mxGeometry>
        </mxCell>
        <mxCell id="vL6Nq_Aky3gKRxV9vYMv-53" value="" style="endArrow=none;html=1;rounded=0;exitX=1;exitY=0.5;exitDx=0;exitDy=0;entryX=0;entryY=0.5;entryDx=0;entryDy=0;" edge="1" parent="WIyWlLk6GJQsqaUBKTNV-1" source="5nUj0MCLF96ZCzCzL8qP-98" target="vL6Nq_Aky3gKRxV9vYMv-50">
          <mxGeometry width="50" height="50" relative="1" as="geometry">
            <mxPoint x="1312.6799999999998" y="711.1199999999999" as="sourcePoint" />
            <mxPoint x="1320.5000000000005" y="684.1800000000001" as="targetPoint" />
          </mxGeometry>
        </mxCell>
        <mxCell id="vL6Nq_Aky3gKRxV9vYMv-55" value="년" style="ellipse;whiteSpace=wrap;html=1;" vertex="1" parent="WIyWlLk6GJQsqaUBKTNV-1">
          <mxGeometry x="1281" y="1070" width="50" height="30" as="geometry" />
        </mxCell>
        <mxCell id="vL6Nq_Aky3gKRxV9vYMv-56" value="월" style="ellipse;whiteSpace=wrap;html=1;" vertex="1" parent="WIyWlLk6GJQsqaUBKTNV-1">
          <mxGeometry x="1291" y="1100" width="50" height="30" as="geometry" />
        </mxCell>
        <mxCell id="vL6Nq_Aky3gKRxV9vYMv-57" value="일" style="ellipse;whiteSpace=wrap;html=1;" vertex="1" parent="WIyWlLk6GJQsqaUBKTNV-1">
          <mxGeometry x="1246.12" y="1115" width="50" height="30" as="geometry" />
        </mxCell>
        <mxCell id="vL6Nq_Aky3gKRxV9vYMv-58" value="" style="endArrow=none;html=1;rounded=0;exitX=1;exitY=1;exitDx=0;exitDy=0;entryX=0.329;entryY=1.027;entryDx=0;entryDy=0;entryPerimeter=0;" edge="1" parent="WIyWlLk6GJQsqaUBKTNV-1" target="vL6Nq_Aky3gKRxV9vYMv-55" source="5nUj0MCLF96ZCzCzL8qP-112">
          <mxGeometry width="50" height="50" relative="1" as="geometry">
            <mxPoint x="1281" y="1138.75" as="sourcePoint" />
            <mxPoint x="1296" y="1098.75" as="targetPoint" />
          </mxGeometry>
        </mxCell>
        <mxCell id="vL6Nq_Aky3gKRxV9vYMv-59" value="" style="endArrow=none;html=1;rounded=0;exitX=1;exitY=1;exitDx=0;exitDy=0;entryX=0;entryY=0.5;entryDx=0;entryDy=0;" edge="1" parent="WIyWlLk6GJQsqaUBKTNV-1" target="vL6Nq_Aky3gKRxV9vYMv-56" source="5nUj0MCLF96ZCzCzL8qP-112">
          <mxGeometry width="50" height="50" relative="1" as="geometry">
            <mxPoint x="1281" y="1138.75" as="sourcePoint" />
            <mxPoint x="1300.5000000000005" y="1112.93" as="targetPoint" />
          </mxGeometry>
        </mxCell>
        <mxCell id="vL6Nq_Aky3gKRxV9vYMv-60" value="" style="endArrow=none;html=1;rounded=0;entryX=0;entryY=0;entryDx=0;entryDy=0;exitX=1;exitY=1;exitDx=0;exitDy=0;" edge="1" parent="WIyWlLk6GJQsqaUBKTNV-1" target="vL6Nq_Aky3gKRxV9vYMv-57" source="5nUj0MCLF96ZCzCzL8qP-112">
          <mxGeometry width="50" height="50" relative="1" as="geometry">
            <mxPoint x="1240" y="1090" as="sourcePoint" />
            <mxPoint x="1310.5000000000005" y="1122.93" as="targetPoint" />
          </mxGeometry>
        </mxCell>
        <mxCell id="vL6Nq_Aky3gKRxV9vYMv-62" value="년" style="ellipse;whiteSpace=wrap;html=1;" vertex="1" parent="WIyWlLk6GJQsqaUBKTNV-1">
          <mxGeometry x="2230" y="995" width="50" height="30" as="geometry" />
        </mxCell>
        <mxCell id="vL6Nq_Aky3gKRxV9vYMv-63" value="월" style="ellipse;whiteSpace=wrap;html=1;" vertex="1" parent="WIyWlLk6GJQsqaUBKTNV-1">
          <mxGeometry x="2209.5" y="1022.5" width="50" height="30" as="geometry" />
        </mxCell>
        <mxCell id="vL6Nq_Aky3gKRxV9vYMv-64" value="일" style="ellipse;whiteSpace=wrap;html=1;" vertex="1" parent="WIyWlLk6GJQsqaUBKTNV-1">
          <mxGeometry x="2171" y="1040" width="50" height="30" as="geometry" />
        </mxCell>
        <mxCell id="vL6Nq_Aky3gKRxV9vYMv-65" value="" style="endArrow=none;html=1;rounded=0;exitX=0.583;exitY=1.015;exitDx=0;exitDy=0;entryX=0;entryY=0;entryDx=0;entryDy=0;exitPerimeter=0;" edge="1" parent="WIyWlLk6GJQsqaUBKTNV-1" target="vL6Nq_Aky3gKRxV9vYMv-62" source="5nUj0MCLF96ZCzCzL8qP-127">
          <mxGeometry width="50" height="50" relative="1" as="geometry">
            <mxPoint x="2180" y="1108.75" as="sourcePoint" />
            <mxPoint x="2195" y="1068.75" as="targetPoint" />
          </mxGeometry>
        </mxCell>
        <mxCell id="vL6Nq_Aky3gKRxV9vYMv-66" value="" style="endArrow=none;html=1;rounded=0;exitX=0.5;exitY=1;exitDx=0;exitDy=0;entryX=0;entryY=0;entryDx=0;entryDy=0;" edge="1" parent="WIyWlLk6GJQsqaUBKTNV-1" target="vL6Nq_Aky3gKRxV9vYMv-63" source="5nUj0MCLF96ZCzCzL8qP-127">
          <mxGeometry width="50" height="50" relative="1" as="geometry">
            <mxPoint x="2180" y="1108.75" as="sourcePoint" />
            <mxPoint x="2199.5000000000005" y="1082.93" as="targetPoint" />
          </mxGeometry>
        </mxCell>
        <mxCell id="vL6Nq_Aky3gKRxV9vYMv-67" value="" style="endArrow=none;html=1;rounded=0;exitX=0.5;exitY=1;exitDx=0;exitDy=0;entryX=0.5;entryY=0;entryDx=0;entryDy=0;" edge="1" parent="WIyWlLk6GJQsqaUBKTNV-1" target="vL6Nq_Aky3gKRxV9vYMv-64" source="5nUj0MCLF96ZCzCzL8qP-127">
          <mxGeometry width="50" height="50" relative="1" as="geometry">
            <mxPoint x="2180" y="1108.75" as="sourcePoint" />
            <mxPoint x="2209.5000000000005" y="1092.93" as="targetPoint" />
          </mxGeometry>
        </mxCell>
        <mxCell id="vL6Nq_Aky3gKRxV9vYMv-69" value="년" style="ellipse;whiteSpace=wrap;html=1;" vertex="1" parent="WIyWlLk6GJQsqaUBKTNV-1">
          <mxGeometry x="1610" y="400" width="50" height="30" as="geometry" />
        </mxCell>
        <mxCell id="vL6Nq_Aky3gKRxV9vYMv-70" value="월" style="ellipse;whiteSpace=wrap;html=1;" vertex="1" parent="WIyWlLk6GJQsqaUBKTNV-1">
          <mxGeometry x="1591" y="425" width="50" height="30" as="geometry" />
        </mxCell>
        <mxCell id="vL6Nq_Aky3gKRxV9vYMv-71" value="일" style="ellipse;whiteSpace=wrap;html=1;" vertex="1" parent="WIyWlLk6GJQsqaUBKTNV-1">
          <mxGeometry x="1551" y="440" width="50" height="30" as="geometry" />
        </mxCell>
        <mxCell id="vL6Nq_Aky3gKRxV9vYMv-72" value="" style="endArrow=none;html=1;rounded=0;exitX=1;exitY=0.5;exitDx=0;exitDy=0;entryX=0;entryY=0;entryDx=0;entryDy=0;" edge="1" parent="WIyWlLk6GJQsqaUBKTNV-1" target="vL6Nq_Aky3gKRxV9vYMv-69" source="5nUj0MCLF96ZCzCzL8qP-173">
          <mxGeometry width="50" height="50" relative="1" as="geometry">
            <mxPoint x="1571.8100000000004" y="405.5999999999999" as="sourcePoint" />
            <mxPoint x="1575" y="476.25" as="targetPoint" />
          </mxGeometry>
        </mxCell>
        <mxCell id="vL6Nq_Aky3gKRxV9vYMv-73" value="" style="endArrow=none;html=1;rounded=0;entryX=0;entryY=0;entryDx=0;entryDy=0;" edge="1" parent="WIyWlLk6GJQsqaUBKTNV-1" target="vL6Nq_Aky3gKRxV9vYMv-70">
          <mxGeometry width="50" height="50" relative="1" as="geometry">
            <mxPoint x="1560" y="400" as="sourcePoint" />
            <mxPoint x="1579.5000000000005" y="490.43000000000006" as="targetPoint" />
          </mxGeometry>
        </mxCell>
        <mxCell id="vL6Nq_Aky3gKRxV9vYMv-74" value="" style="endArrow=none;html=1;rounded=0;entryX=0.5;entryY=0;entryDx=0;entryDy=0;" edge="1" parent="WIyWlLk6GJQsqaUBKTNV-1" target="vL6Nq_Aky3gKRxV9vYMv-71">
          <mxGeometry width="50" height="50" relative="1" as="geometry">
            <mxPoint x="1560" y="400" as="sourcePoint" />
            <mxPoint x="1589.5000000000005" y="500.43000000000006" as="targetPoint" />
          </mxGeometry>
        </mxCell>
        <mxCell id="vL6Nq_Aky3gKRxV9vYMv-75" value="년" style="ellipse;whiteSpace=wrap;html=1;" vertex="1" parent="WIyWlLk6GJQsqaUBKTNV-1">
          <mxGeometry x="471" y="180" width="50" height="30" as="geometry" />
        </mxCell>
        <mxCell id="vL6Nq_Aky3gKRxV9vYMv-76" value="월" style="ellipse;whiteSpace=wrap;html=1;" vertex="1" parent="WIyWlLk6GJQsqaUBKTNV-1">
          <mxGeometry x="451" y="210" width="50" height="30" as="geometry" />
        </mxCell>
        <mxCell id="vL6Nq_Aky3gKRxV9vYMv-77" value="일" style="ellipse;whiteSpace=wrap;html=1;" vertex="1" parent="WIyWlLk6GJQsqaUBKTNV-1">
          <mxGeometry x="471" y="235" width="50" height="30" as="geometry" />
        </mxCell>
        <mxCell id="vL6Nq_Aky3gKRxV9vYMv-78" value="" style="endArrow=none;html=1;rounded=0;exitX=0;exitY=0.5;exitDx=0;exitDy=0;entryX=1;entryY=0.5;entryDx=0;entryDy=0;" edge="1" parent="WIyWlLk6GJQsqaUBKTNV-1" target="vL6Nq_Aky3gKRxV9vYMv-75" source="5nUj0MCLF96ZCzCzL8qP-147">
          <mxGeometry width="50" height="50" relative="1" as="geometry">
            <mxPoint x="413.8100000000004" y="238.0999999999999" as="sourcePoint" />
            <mxPoint x="417" y="308.75" as="targetPoint" />
          </mxGeometry>
        </mxCell>
        <mxCell id="vL6Nq_Aky3gKRxV9vYMv-79" value="" style="endArrow=none;html=1;rounded=0;exitX=0;exitY=0.5;exitDx=0;exitDy=0;entryX=1;entryY=0;entryDx=0;entryDy=0;" edge="1" parent="WIyWlLk6GJQsqaUBKTNV-1" target="vL6Nq_Aky3gKRxV9vYMv-76" source="5nUj0MCLF96ZCzCzL8qP-147">
          <mxGeometry width="50" height="50" relative="1" as="geometry">
            <mxPoint x="408" y="237.5" as="sourcePoint" />
            <mxPoint x="421.50000000000045" y="322.93000000000006" as="targetPoint" />
          </mxGeometry>
        </mxCell>
        <mxCell id="vL6Nq_Aky3gKRxV9vYMv-80" value="" style="endArrow=none;html=1;rounded=0;exitX=0;exitY=0.5;exitDx=0;exitDy=0;entryX=1;entryY=0.5;entryDx=0;entryDy=0;" edge="1" parent="WIyWlLk6GJQsqaUBKTNV-1" target="vL6Nq_Aky3gKRxV9vYMv-77" source="5nUj0MCLF96ZCzCzL8qP-147">
          <mxGeometry width="50" height="50" relative="1" as="geometry">
            <mxPoint x="408" y="237.5" as="sourcePoint" />
            <mxPoint x="431.50000000000045" y="332.93000000000006" as="targetPoint" />
          </mxGeometry>
        </mxCell>
        <mxCell id="vL6Nq_Aky3gKRxV9vYMv-81" value="년" style="ellipse;whiteSpace=wrap;html=1;" vertex="1" parent="WIyWlLk6GJQsqaUBKTNV-1">
          <mxGeometry x="1586" y="1480" width="50" height="30" as="geometry" />
        </mxCell>
        <mxCell id="vL6Nq_Aky3gKRxV9vYMv-82" value="월" style="ellipse;whiteSpace=wrap;html=1;" vertex="1" parent="WIyWlLk6GJQsqaUBKTNV-1">
          <mxGeometry x="1575.5" y="1510" width="50" height="30" as="geometry" />
        </mxCell>
        <mxCell id="vL6Nq_Aky3gKRxV9vYMv-83" value="일" style="ellipse;whiteSpace=wrap;html=1;" vertex="1" parent="WIyWlLk6GJQsqaUBKTNV-1">
          <mxGeometry x="1541" y="1530" width="50" height="30" as="geometry" />
        </mxCell>
        <mxCell id="vL6Nq_Aky3gKRxV9vYMv-84" value="" style="endArrow=none;html=1;rounded=0;exitX=1;exitY=0.5;exitDx=0;exitDy=0;entryX=0;entryY=0;entryDx=0;entryDy=0;" edge="1" parent="WIyWlLk6GJQsqaUBKTNV-1" target="vL6Nq_Aky3gKRxV9vYMv-81" source="5nUj0MCLF96ZCzCzL8qP-245">
          <mxGeometry width="50" height="50" relative="1" as="geometry">
            <mxPoint x="1551.0000000000186" y="1490" as="sourcePoint" />
            <mxPoint x="1565" y="1566.25" as="targetPoint" />
          </mxGeometry>
        </mxCell>
        <mxCell id="vL6Nq_Aky3gKRxV9vYMv-85" value="" style="endArrow=none;html=1;rounded=0;entryX=0;entryY=0;entryDx=0;entryDy=0;exitX=1;exitY=0.5;exitDx=0;exitDy=0;" edge="1" parent="WIyWlLk6GJQsqaUBKTNV-1" target="vL6Nq_Aky3gKRxV9vYMv-82" source="5nUj0MCLF96ZCzCzL8qP-245">
          <mxGeometry width="50" height="50" relative="1" as="geometry">
            <mxPoint x="1550" y="1490" as="sourcePoint" />
            <mxPoint x="1569.5000000000005" y="1580.43" as="targetPoint" />
          </mxGeometry>
        </mxCell>
        <mxCell id="vL6Nq_Aky3gKRxV9vYMv-86" value="" style="endArrow=none;html=1;rounded=0;entryX=0.5;entryY=0;entryDx=0;entryDy=0;exitX=1;exitY=0.5;exitDx=0;exitDy=0;" edge="1" parent="WIyWlLk6GJQsqaUBKTNV-1" target="vL6Nq_Aky3gKRxV9vYMv-83" source="5nUj0MCLF96ZCzCzL8qP-245">
          <mxGeometry width="50" height="50" relative="1" as="geometry">
            <mxPoint x="1550" y="1490" as="sourcePoint" />
            <mxPoint x="1579.5000000000005" y="1590.43" as="targetPoint" />
          </mxGeometry>
        </mxCell>
        <mxCell id="vL6Nq_Aky3gKRxV9vYMv-87" value="년" style="ellipse;whiteSpace=wrap;html=1;" vertex="1" parent="WIyWlLk6GJQsqaUBKTNV-1">
          <mxGeometry x="791" y="700" width="50" height="30" as="geometry" />
        </mxCell>
        <mxCell id="vL6Nq_Aky3gKRxV9vYMv-88" value="월" style="ellipse;whiteSpace=wrap;html=1;" vertex="1" parent="WIyWlLk6GJQsqaUBKTNV-1">
          <mxGeometry x="791" y="727.5" width="50" height="30" as="geometry" />
        </mxCell>
        <mxCell id="vL6Nq_Aky3gKRxV9vYMv-89" value="일" style="ellipse;whiteSpace=wrap;html=1;" vertex="1" parent="WIyWlLk6GJQsqaUBKTNV-1">
          <mxGeometry x="791" y="757.5" width="50" height="30" as="geometry" />
        </mxCell>
        <mxCell id="vL6Nq_Aky3gKRxV9vYMv-90" value="" style="endArrow=none;html=1;rounded=0;exitX=0.274;exitY=0.001;exitDx=0;exitDy=0;entryX=1;entryY=0.5;entryDx=0;entryDy=0;exitPerimeter=0;" edge="1" parent="WIyWlLk6GJQsqaUBKTNV-1" target="vL6Nq_Aky3gKRxV9vYMv-87" source="5nUj0MCLF96ZCzCzL8qP-254">
          <mxGeometry width="50" height="50" relative="1" as="geometry">
            <mxPoint x="917.5" y="720" as="sourcePoint" />
            <mxPoint x="763.5" y="818.75" as="targetPoint" />
          </mxGeometry>
        </mxCell>
        <mxCell id="vL6Nq_Aky3gKRxV9vYMv-91" value="" style="endArrow=none;html=1;rounded=0;entryX=1;entryY=0;entryDx=0;entryDy=0;" edge="1" parent="WIyWlLk6GJQsqaUBKTNV-1" target="vL6Nq_Aky3gKRxV9vYMv-88">
          <mxGeometry width="50" height="50" relative="1" as="geometry">
            <mxPoint x="900" y="790" as="sourcePoint" />
            <mxPoint x="768.0000000000005" y="832.9300000000001" as="targetPoint" />
          </mxGeometry>
        </mxCell>
        <mxCell id="vL6Nq_Aky3gKRxV9vYMv-92" value="" style="endArrow=none;html=1;rounded=0;exitX=0.329;exitY=0.05;exitDx=0;exitDy=0;entryX=1;entryY=0.5;entryDx=0;entryDy=0;exitPerimeter=0;" edge="1" parent="WIyWlLk6GJQsqaUBKTNV-1" target="vL6Nq_Aky3gKRxV9vYMv-89" source="5nUj0MCLF96ZCzCzL8qP-254">
          <mxGeometry width="50" height="50" relative="1" as="geometry">
            <mxPoint x="917.5" y="720" as="sourcePoint" />
            <mxPoint x="778.0000000000005" y="842.9300000000001" as="targetPoint" />
          </mxGeometry>
        </mxCell>
        <mxCell id="vL6Nq_Aky3gKRxV9vYMv-93" value="년" style="ellipse;whiteSpace=wrap;html=1;" vertex="1" parent="WIyWlLk6GJQsqaUBKTNV-1">
          <mxGeometry x="542.97" y="1053" width="50" height="30" as="geometry" />
        </mxCell>
        <mxCell id="vL6Nq_Aky3gKRxV9vYMv-94" value="월" style="ellipse;whiteSpace=wrap;html=1;" vertex="1" parent="WIyWlLk6GJQsqaUBKTNV-1">
          <mxGeometry x="542.97" y="1080.5" width="50" height="30" as="geometry" />
        </mxCell>
        <mxCell id="vL6Nq_Aky3gKRxV9vYMv-95" value="일" style="ellipse;whiteSpace=wrap;html=1;" vertex="1" parent="WIyWlLk6GJQsqaUBKTNV-1">
          <mxGeometry x="542.97" y="1110.5" width="50" height="30" as="geometry" />
        </mxCell>
        <mxCell id="vL6Nq_Aky3gKRxV9vYMv-96" value="" style="endArrow=none;html=1;rounded=0;exitX=0;exitY=0;exitDx=0;exitDy=0;entryX=1;entryY=0.5;entryDx=0;entryDy=0;" edge="1" parent="WIyWlLk6GJQsqaUBKTNV-1" target="vL6Nq_Aky3gKRxV9vYMv-93" source="5nUj0MCLF96ZCzCzL8qP-260">
          <mxGeometry width="50" height="50" relative="1" as="geometry">
            <mxPoint x="652.1499999999999" y="1143.0399999999997" as="sourcePoint" />
            <mxPoint x="515.47" y="1171.75" as="targetPoint" />
          </mxGeometry>
        </mxCell>
        <mxCell id="vL6Nq_Aky3gKRxV9vYMv-97" value="" style="endArrow=none;html=1;rounded=0;entryX=1;entryY=0;entryDx=0;entryDy=0;exitX=0;exitY=0;exitDx=0;exitDy=0;" edge="1" parent="WIyWlLk6GJQsqaUBKTNV-1" target="vL6Nq_Aky3gKRxV9vYMv-94" source="5nUj0MCLF96ZCzCzL8qP-260">
          <mxGeometry width="50" height="50" relative="1" as="geometry">
            <mxPoint x="651.9699999999998" y="1143" as="sourcePoint" />
            <mxPoint x="519.9700000000005" y="1185.93" as="targetPoint" />
          </mxGeometry>
        </mxCell>
        <mxCell id="vL6Nq_Aky3gKRxV9vYMv-98" value="" style="endArrow=none;html=1;rounded=0;entryX=1;entryY=0.5;entryDx=0;entryDy=0;exitX=0;exitY=0;exitDx=0;exitDy=0;" edge="1" parent="WIyWlLk6GJQsqaUBKTNV-1" target="vL6Nq_Aky3gKRxV9vYMv-95" source="5nUj0MCLF96ZCzCzL8qP-260">
          <mxGeometry width="50" height="50" relative="1" as="geometry">
            <mxPoint x="650" y="1150" as="sourcePoint" />
            <mxPoint x="529.9700000000005" y="1195.93" as="targetPoint" />
          </mxGeometry>
        </mxCell>
        <mxCell id="vL6Nq_Aky3gKRxV9vYMv-99" value="년" style="ellipse;whiteSpace=wrap;html=1;" vertex="1" parent="WIyWlLk6GJQsqaUBKTNV-1">
          <mxGeometry x="1339.15" y="1145" width="50" height="30" as="geometry" />
        </mxCell>
        <mxCell id="vL6Nq_Aky3gKRxV9vYMv-100" value="월" style="ellipse;whiteSpace=wrap;html=1;" vertex="1" parent="WIyWlLk6GJQsqaUBKTNV-1">
          <mxGeometry x="1349.15" y="1175" width="50" height="30" as="geometry" />
        </mxCell>
        <mxCell id="vL6Nq_Aky3gKRxV9vYMv-101" value="일" style="ellipse;whiteSpace=wrap;html=1;" vertex="1" parent="WIyWlLk6GJQsqaUBKTNV-1">
          <mxGeometry x="1316.12" y="1200" width="50" height="30" as="geometry" />
        </mxCell>
        <mxCell id="vL6Nq_Aky3gKRxV9vYMv-102" value="" style="endArrow=none;html=1;rounded=0;exitX=1;exitY=0.5;exitDx=0;exitDy=0;entryX=0.329;entryY=1.027;entryDx=0;entryDy=0;entryPerimeter=0;" edge="1" parent="WIyWlLk6GJQsqaUBKTNV-1" target="vL6Nq_Aky3gKRxV9vYMv-99" source="5nUj0MCLF96ZCzCzL8qP-265">
          <mxGeometry width="50" height="50" relative="1" as="geometry">
            <mxPoint x="1293.8564557442828" y="1169.234263851953" as="sourcePoint" />
            <mxPoint x="1354.15" y="1173.75" as="targetPoint" />
          </mxGeometry>
        </mxCell>
        <mxCell id="vL6Nq_Aky3gKRxV9vYMv-103" value="" style="endArrow=none;html=1;rounded=0;entryX=0;entryY=0.5;entryDx=0;entryDy=0;exitX=1;exitY=0.5;exitDx=0;exitDy=0;" edge="1" parent="WIyWlLk6GJQsqaUBKTNV-1" target="vL6Nq_Aky3gKRxV9vYMv-100" source="5nUj0MCLF96ZCzCzL8qP-265">
          <mxGeometry width="50" height="50" relative="1" as="geometry">
            <mxPoint x="1280" y="1180" as="sourcePoint" />
            <mxPoint x="1358.6500000000005" y="1187.93" as="targetPoint" />
          </mxGeometry>
        </mxCell>
        <mxCell id="vL6Nq_Aky3gKRxV9vYMv-104" value="" style="endArrow=none;html=1;rounded=0;entryX=0;entryY=0;entryDx=0;entryDy=0;exitX=1;exitY=0.5;exitDx=0;exitDy=0;" edge="1" parent="WIyWlLk6GJQsqaUBKTNV-1" target="vL6Nq_Aky3gKRxV9vYMv-101" source="5nUj0MCLF96ZCzCzL8qP-265">
          <mxGeometry width="50" height="50" relative="1" as="geometry">
            <mxPoint x="1293.8564557442828" y="1169.234263851953" as="sourcePoint" />
            <mxPoint x="1368.6500000000005" y="1197.93" as="targetPoint" />
          </mxGeometry>
        </mxCell>
        <mxCell id="vL6Nq_Aky3gKRxV9vYMv-105" value="년" style="ellipse;whiteSpace=wrap;html=1;" vertex="1" parent="WIyWlLk6GJQsqaUBKTNV-1">
          <mxGeometry x="725" y="575" width="50" height="30" as="geometry" />
        </mxCell>
        <mxCell id="vL6Nq_Aky3gKRxV9vYMv-106" value="월" style="ellipse;whiteSpace=wrap;html=1;" vertex="1" parent="WIyWlLk6GJQsqaUBKTNV-1">
          <mxGeometry x="705" y="605" width="50" height="30" as="geometry" />
        </mxCell>
        <mxCell id="vL6Nq_Aky3gKRxV9vYMv-107" value="일" style="ellipse;whiteSpace=wrap;html=1;" vertex="1" parent="WIyWlLk6GJQsqaUBKTNV-1">
          <mxGeometry x="725" y="630" width="50" height="30" as="geometry" />
        </mxCell>
        <mxCell id="vL6Nq_Aky3gKRxV9vYMv-108" value="" style="endArrow=none;html=1;rounded=0;exitX=0;exitY=0.5;exitDx=0;exitDy=0;entryX=1;entryY=0.5;entryDx=0;entryDy=0;" edge="1" parent="WIyWlLk6GJQsqaUBKTNV-1" target="vL6Nq_Aky3gKRxV9vYMv-105" source="5nUj0MCLF96ZCzCzL8qP-282">
          <mxGeometry width="50" height="50" relative="1" as="geometry">
            <mxPoint x="824.9999999999941" y="605" as="sourcePoint" />
            <mxPoint x="671" y="703.75" as="targetPoint" />
          </mxGeometry>
        </mxCell>
        <mxCell id="vL6Nq_Aky3gKRxV9vYMv-109" value="" style="endArrow=none;html=1;rounded=0;exitX=0;exitY=0.5;exitDx=0;exitDy=0;entryX=1;entryY=0;entryDx=0;entryDy=0;" edge="1" parent="WIyWlLk6GJQsqaUBKTNV-1" target="vL6Nq_Aky3gKRxV9vYMv-106" source="5nUj0MCLF96ZCzCzL8qP-282">
          <mxGeometry width="50" height="50" relative="1" as="geometry">
            <mxPoint x="824.9999999999941" y="605" as="sourcePoint" />
            <mxPoint x="675.5000000000005" y="717.9300000000001" as="targetPoint" />
          </mxGeometry>
        </mxCell>
        <mxCell id="vL6Nq_Aky3gKRxV9vYMv-110" value="" style="endArrow=none;html=1;rounded=0;entryX=1;entryY=0.5;entryDx=0;entryDy=0;exitX=0.006;exitY=0.588;exitDx=0;exitDy=0;exitPerimeter=0;" edge="1" parent="WIyWlLk6GJQsqaUBKTNV-1" target="vL6Nq_Aky3gKRxV9vYMv-107" source="5nUj0MCLF96ZCzCzL8qP-282">
          <mxGeometry width="50" height="50" relative="1" as="geometry">
            <mxPoint x="820" y="600" as="sourcePoint" />
            <mxPoint x="685.5000000000005" y="727.9300000000001" as="targetPoint" />
          </mxGeometry>
        </mxCell>
        <mxCell id="vL6Nq_Aky3gKRxV9vYMv-111" value="년" style="ellipse;whiteSpace=wrap;html=1;" vertex="1" parent="WIyWlLk6GJQsqaUBKTNV-1">
          <mxGeometry x="1431" y="730" width="50" height="30" as="geometry" />
        </mxCell>
        <mxCell id="vL6Nq_Aky3gKRxV9vYMv-112" value="월" style="ellipse;whiteSpace=wrap;html=1;" vertex="1" parent="WIyWlLk6GJQsqaUBKTNV-1">
          <mxGeometry x="1461" y="752.5" width="50" height="30" as="geometry" />
        </mxCell>
        <mxCell id="vL6Nq_Aky3gKRxV9vYMv-113" value="일" style="ellipse;whiteSpace=wrap;html=1;" vertex="1" parent="WIyWlLk6GJQsqaUBKTNV-1">
          <mxGeometry x="1471" y="777.5" width="50" height="30" as="geometry" />
        </mxCell>
        <mxCell id="vL6Nq_Aky3gKRxV9vYMv-114" value="" style="endArrow=none;html=1;rounded=0;exitX=1.007;exitY=0.4;exitDx=0;exitDy=0;entryX=0.329;entryY=1.027;entryDx=0;entryDy=0;entryPerimeter=0;exitPerimeter=0;" edge="1" parent="WIyWlLk6GJQsqaUBKTNV-1" target="vL6Nq_Aky3gKRxV9vYMv-111" source="5nUj0MCLF96ZCzCzL8qP-272">
          <mxGeometry width="50" height="50" relative="1" as="geometry">
            <mxPoint x="1431" y="797.5" as="sourcePoint" />
            <mxPoint x="1446" y="757.5" as="targetPoint" />
          </mxGeometry>
        </mxCell>
        <mxCell id="vL6Nq_Aky3gKRxV9vYMv-115" value="" style="endArrow=none;html=1;rounded=0;exitX=1.014;exitY=0.388;exitDx=0;exitDy=0;entryX=0;entryY=1;entryDx=0;entryDy=0;exitPerimeter=0;" edge="1" parent="WIyWlLk6GJQsqaUBKTNV-1" target="vL6Nq_Aky3gKRxV9vYMv-112" source="5nUj0MCLF96ZCzCzL8qP-272">
          <mxGeometry width="50" height="50" relative="1" as="geometry">
            <mxPoint x="1431" y="797.5" as="sourcePoint" />
            <mxPoint x="1450.5000000000005" y="771.6800000000001" as="targetPoint" />
          </mxGeometry>
        </mxCell>
        <mxCell id="vL6Nq_Aky3gKRxV9vYMv-116" value="" style="endArrow=none;html=1;rounded=0;exitX=1.021;exitY=0.363;exitDx=0;exitDy=0;entryX=0;entryY=0.5;entryDx=0;entryDy=0;exitPerimeter=0;" edge="1" parent="WIyWlLk6GJQsqaUBKTNV-1" target="vL6Nq_Aky3gKRxV9vYMv-113" source="5nUj0MCLF96ZCzCzL8qP-272">
          <mxGeometry width="50" height="50" relative="1" as="geometry">
            <mxPoint x="1431" y="797.5" as="sourcePoint" />
            <mxPoint x="1460.5000000000005" y="781.6800000000001" as="targetPoint" />
          </mxGeometry>
        </mxCell>
        <mxCell id="vL6Nq_Aky3gKRxV9vYMv-117" value="년" style="ellipse;whiteSpace=wrap;html=1;" vertex="1" parent="WIyWlLk6GJQsqaUBKTNV-1">
          <mxGeometry x="2239" y="700" width="50" height="30" as="geometry" />
        </mxCell>
        <mxCell id="vL6Nq_Aky3gKRxV9vYMv-118" value="월" style="ellipse;whiteSpace=wrap;html=1;" vertex="1" parent="WIyWlLk6GJQsqaUBKTNV-1">
          <mxGeometry x="2220" y="725" width="50" height="30" as="geometry" />
        </mxCell>
        <mxCell id="vL6Nq_Aky3gKRxV9vYMv-119" value="일" style="ellipse;whiteSpace=wrap;html=1;" vertex="1" parent="WIyWlLk6GJQsqaUBKTNV-1">
          <mxGeometry x="2180" y="740" width="50" height="30" as="geometry" />
        </mxCell>
        <mxCell id="vL6Nq_Aky3gKRxV9vYMv-120" value="" style="endArrow=none;html=1;rounded=0;exitX=0.588;exitY=0.974;exitDx=0;exitDy=0;entryX=0;entryY=0;entryDx=0;entryDy=0;exitPerimeter=0;" edge="1" parent="WIyWlLk6GJQsqaUBKTNV-1" target="vL6Nq_Aky3gKRxV9vYMv-117" source="5nUj0MCLF96ZCzCzL8qP-276">
          <mxGeometry width="50" height="50" relative="1" as="geometry">
            <mxPoint x="2190.0000000000114" y="700" as="sourcePoint" />
            <mxPoint x="2204" y="776.25" as="targetPoint" />
          </mxGeometry>
        </mxCell>
        <mxCell id="vL6Nq_Aky3gKRxV9vYMv-121" value="" style="endArrow=none;html=1;rounded=0;entryX=0;entryY=0;entryDx=0;entryDy=0;exitX=0.613;exitY=0.974;exitDx=0;exitDy=0;exitPerimeter=0;" edge="1" parent="WIyWlLk6GJQsqaUBKTNV-1" target="vL6Nq_Aky3gKRxV9vYMv-118" source="5nUj0MCLF96ZCzCzL8qP-276">
          <mxGeometry width="50" height="50" relative="1" as="geometry">
            <mxPoint x="2189" y="700" as="sourcePoint" />
            <mxPoint x="2208.5000000000005" y="790.4300000000001" as="targetPoint" />
          </mxGeometry>
        </mxCell>
        <mxCell id="vL6Nq_Aky3gKRxV9vYMv-122" value="" style="endArrow=none;html=1;rounded=0;entryX=0.5;entryY=0;entryDx=0;entryDy=0;exitX=0.597;exitY=1.003;exitDx=0;exitDy=0;exitPerimeter=0;" edge="1" parent="WIyWlLk6GJQsqaUBKTNV-1" target="vL6Nq_Aky3gKRxV9vYMv-119" source="5nUj0MCLF96ZCzCzL8qP-276">
          <mxGeometry width="50" height="50" relative="1" as="geometry">
            <mxPoint x="2189" y="700" as="sourcePoint" />
            <mxPoint x="2218.5000000000005" y="800.4300000000001" as="targetPoint" />
          </mxGeometry>
        </mxCell>
        <mxCell id="vL6Nq_Aky3gKRxV9vYMv-123" value="시" style="ellipse;whiteSpace=wrap;html=1;" vertex="1" parent="WIyWlLk6GJQsqaUBKTNV-1">
          <mxGeometry x="431" y="1475" width="50" height="30" as="geometry" />
        </mxCell>
        <mxCell id="vL6Nq_Aky3gKRxV9vYMv-124" value="분" style="ellipse;whiteSpace=wrap;html=1;" vertex="1" parent="WIyWlLk6GJQsqaUBKTNV-1">
          <mxGeometry x="411" y="1500" width="50" height="30" as="geometry" />
        </mxCell>
        <mxCell id="vL6Nq_Aky3gKRxV9vYMv-125" value="초" style="ellipse;whiteSpace=wrap;html=1;" vertex="1" parent="WIyWlLk6GJQsqaUBKTNV-1">
          <mxGeometry x="440" y="1525" width="50" height="30" as="geometry" />
        </mxCell>
        <mxCell id="vL6Nq_Aky3gKRxV9vYMv-126" value="" style="endArrow=none;html=1;rounded=0;exitX=0.08;exitY=0.738;exitDx=0;exitDy=0;entryX=1;entryY=0.5;entryDx=0;entryDy=0;exitPerimeter=0;" edge="1" parent="WIyWlLk6GJQsqaUBKTNV-1" target="vL6Nq_Aky3gKRxV9vYMv-123" source="5nUj0MCLF96ZCzCzL8qP-225">
          <mxGeometry width="50" height="50" relative="1" as="geometry">
            <mxPoint x="531" y="1505" as="sourcePoint" />
            <mxPoint x="377" y="1603.75" as="targetPoint" />
          </mxGeometry>
        </mxCell>
        <mxCell id="vL6Nq_Aky3gKRxV9vYMv-127" value="" style="endArrow=none;html=1;rounded=0;exitX=0.07;exitY=0.8;exitDx=0;exitDy=0;entryX=1;entryY=0.5;entryDx=0;entryDy=0;exitPerimeter=0;" edge="1" parent="WIyWlLk6GJQsqaUBKTNV-1" target="vL6Nq_Aky3gKRxV9vYMv-124" source="5nUj0MCLF96ZCzCzL8qP-225">
          <mxGeometry width="50" height="50" relative="1" as="geometry">
            <mxPoint x="531" y="1505" as="sourcePoint" />
            <mxPoint x="381.50000000000045" y="1617.93" as="targetPoint" />
          </mxGeometry>
        </mxCell>
        <mxCell id="vL6Nq_Aky3gKRxV9vYMv-128" value="" style="endArrow=none;html=1;rounded=0;exitX=0.089;exitY=0.821;exitDx=0;exitDy=0;entryX=1;entryY=0;entryDx=0;entryDy=0;exitPerimeter=0;" edge="1" parent="WIyWlLk6GJQsqaUBKTNV-1" target="vL6Nq_Aky3gKRxV9vYMv-125" source="5nUj0MCLF96ZCzCzL8qP-225">
          <mxGeometry width="50" height="50" relative="1" as="geometry">
            <mxPoint x="531" y="1505" as="sourcePoint" />
            <mxPoint x="391.50000000000045" y="1627.93" as="targetPoint" />
          </mxGeometry>
        </mxCell>
      </root>
    </mxGraphModel>
  </diagram>
</mxfile>
